<svg width="64" height="64" viewBox="0 0 64 64" fill="none" xmlns="http://www.w3.org/2000/svg">
  <path d="M 24 56 L 16 56 A 8 8 0 0 1 8 48 L 8 16 A 8 8 0 0 1 16 8 L 24 8" stroke="currentColor" stroke-width="2" stroke-linecap="round" stroke-linejoin="round"/>
  <path d="M 40 56 L 48 56 A 8 8 0 0 0 56 48 L 56 16 A 8 8 0 0 0 48 8 L 40 8" stroke="currentColor" stroke-width="2" stroke-linecap="round" stroke-linejoin="round"/>
  <path d="M 26 62 L 26 48 A 6 6 0 0 1 38 48 L 38 62" stroke="currentColor" stroke-width="2" stroke-linecap="round" stroke-linejoin="round"/>
  <circle cx="32" cy="53" r="1.5" stroke="currentColor" stroke-width="2"/>
  <path d="M 29 48 L 29 62 M 35 48 L 35 62" stroke="currentColor" stroke-width="2" stroke-linecap="round" stroke-linejoin="round"/>
  <path d="M 32 42 L 32 24" stroke="currentColor" stroke-width="2" stroke-linecap="round" stroke-linejoin="round"/>
  <path d="M 24 12 L 24 18 C 24 24 40 24 40 18 L 40 12" stroke="currentColor" stroke-width="2" stroke-linecap="round" stroke-linejoin="round"/>
  <path d="M 29 23 L 29 12 M 35 23 L 35 12" stroke="currentColor" stroke-width="2" stroke-linecap="round" stroke-linejoin="round"/>
</svg>
