<svg width="64" height="64" viewBox="0 0 64 64" fill="none" xmlns="http://www.w3.org/2000/svg">
  <path d="M 24 56 L 16 56 A 8 8 0 0 1 8 48 L 8 16 A 8 8 0 0 1 16 8 L 24 8" stroke="currentColor" stroke-width="2" stroke-linecap="round" stroke-linejoin="round"/>
  <path d="M 40 56 L 48 56 A 8 8 0 0 0 56 48 L 56 16 A 8 8 0 0 0 48 8 L 40 8" stroke="currentColor" stroke-width="2" stroke-linecap="round" stroke-linejoin="round"/>
  <path d="M 26 62 L 26 48 A 6 6 0 0 1 38 48 L 38 62" stroke="currentColor" stroke-width="2" stroke-linecap="round" stroke-linejoin="round"/>
  <circle cx="32" cy="53" r="1.5" stroke="currentColor" stroke-width="2"/>
  <path d="M 29 48 L 29 62 M 35 48 L 35 62" stroke="currentColor" stroke-width="2" stroke-linecap="round" stroke-linejoin="round"/>
  <path d="M 28 42 L 28 4 L 36 4 L 36 42" stroke="currentColor" stroke-width="2" stroke-linecap="round" stroke-linejoin="round"/>
  <line x1="28" y1="8" x2="31" y2="8" stroke="currentColor" stroke-width="1.5" stroke-linecap="round"/>
  <line x1="28" y1="12" x2="30" y2="12" stroke="currentColor" stroke-width="1.5" stroke-linecap="round"/>
  <line x1="28" y1="16" x2="31" y2="16" stroke="currentColor" stroke-width="1.5" stroke-linecap="round"/>
  <line x1="28" y1="20" x2="30" y2="20" stroke="currentColor" stroke-width="1.5" stroke-linecap="round"/>
  <line x1="28" y1="24" x2="31" y2="24" stroke="currentColor" stroke-width="1.5" stroke-linecap="round"/>
  <line x1="28" y1="28" x2="30" y2="28" stroke="currentColor" stroke-width="1.5" stroke-linecap="round"/>
  <line x1="28" y1="32" x2="31" y2="32" stroke="currentColor" stroke-width="1.5" stroke-linecap="round"/>
  <line x1="28" y1="36" x2="30" y2="36" stroke="currentColor" stroke-width="1.5" stroke-linecap="round"/>
  <line x1="36" y1="10" x2="34" y2="10" stroke="currentColor" stroke-width="1.5" stroke-linecap="round"/>
  <line x1="36" y1="14" x2="33" y2="14" stroke="currentColor" stroke-width="1.5" stroke-linecap="round"/>
  <line x1="36" y1="18" x2="34" y2="18" stroke="currentColor" stroke-width="1.5" stroke-linecap="round"/>
  <line x1="36" y1="22" x2="33" y2="22" stroke="currentColor" stroke-width="1.5" stroke-linecap="round"/>
  <line x1="36" y1="26" x2="34" y2="26" stroke="currentColor" stroke-width="1.5" stroke-linecap="round"/>
  <line x1="36" y1="30" x2="33" y2="30" stroke="currentColor" stroke-width="1.5" stroke-linecap="round"/>
  <line x1="36" y1="34" x2="34" y2="34" stroke="currentColor" stroke-width="1.5" stroke-linecap="round"/>
  <line x1="36" y1="38" x2="33" y2="38" stroke="currentColor" stroke-width="1.5" stroke-linecap="round"/>
</svg>
