<svg width="64" height="64" viewBox="0 0 64 64" fill="none" xmlns="http://www.w3.org/2000/svg">
  <path d="M 24 56 L 16 56 A 8 8 0 0 1 8 48 L 8 16 A 8 8 0 0 1 16 8 L 24 8" stroke="currentColor" stroke-width="2" stroke-linecap="round" stroke-linejoin="round"/>
  <path d="M 40 56 L 48 56 A 8 8 0 0 0 56 48 L 56 16 A 8 8 0 0 0 48 8 L 40 8" stroke="currentColor" stroke-width="2" stroke-linecap="round" stroke-linejoin="round"/>
  <path d="M 26 62 L 26 48 A 6 6 0 0 1 38 48 L 38 62" stroke="currentColor" stroke-width="2" stroke-linecap="round" stroke-linejoin="round"/>
  <circle cx="32" cy="53" r="1.5" stroke="currentColor" stroke-width="2"/>
  <path d="M 29 48 L 29 62 M 35 48 L 35 62" stroke="currentColor" stroke-width="2" stroke-linecap="round" stroke-linejoin="round"/>
  <path d="M 28 42 L 28 16 C 28 10 32 4 32 4 C 36 12 36 24 36 42" stroke="currentColor" stroke-width="2" stroke-linecap="round" stroke-linejoin="round"/>
  <path d="M 34 20 C 33 22 33 26 34 28" stroke="currentColor" stroke-width="2" stroke-linecap="round" stroke-linejoin="round"/>
</svg>
