<?xml version="1.0" encoding="utf-8"?>
<!DOCTYPE svg PUBLIC "-//W3C//DTD SVG 1.0//EN" "http://www.w3.org/TR/2001/REC-SVG-20010904/DTD/svg10.dtd">
<svg version="1.0" xmlns="http://www.w3.org/2000/svg" width="1201px" height="995px" viewBox="0 0 1201 995" preserveAspectRatio="xMidYMid meet">
 <g fill="#bedeea">
  <path d="M21.2 985.8 l-0.3 -9.4 -10.4 -0.3 -10.5 -0.3 0 -19.2 0 -19.3 10.2 0 10.2 0 0 -12.9 0 -12.9 -10.2 0 -10.2 0 0 -83.6 0 -83.6 10.2 0 10.2 0 0 -12.3 0 -12.3 -10.2 0 -10.2 0 0 -67 0 -67 26.8 0 26.8 0 0 -12.9 0 -12.9 -16.6 0 -16.6 0 0 -32.3 0 -32.4 -10.2 0.8 -10.2 0.8 0 -19.8 0 -19.9 10.2 0 10.2 0 0 -12.9 0 -12.9 -10.2 0 -10.2 0 0 -19.3 0 -19.3 10.2 0 10.2 0 0 -12.9 0 -12.9 -10.2 0 -10.2 0 0 -19.3 0 -19.3 10.2 0 10.2 0 0 -28.3 c0 -21.7 -0.3 -28.4 -1.4 -28.8 -0.6 -0.3 -5.3 -0.2 -10.1 0.1 l-8.9 0.5 0 -35.6 0 -35.5 10.2 0 10.2 0 0 -12.3 0 -12.3 -10.2 0 -10.2 0 0 -87.9 0 -87.9 30 0 30 0 0 5.4 0 5.4 12.9 0 12.9 0 0 -5.4 0 -5.4 68.6 0 68.6 0 0 5.9 0 5.9 13.4 0 13.4 0 0 -5.9 0 -5.9 19.3 0 19.3 0 0 5.9 0 5.9 12.9 0 12.9 0 0 -5.9 0 -5.9 83.6 0 83.6 0 0 5.4 0 5.4 12.9 0 12.9 0 0 -5.4 0 -5.4 63.8 0 63.8 0 0 5.4 0 5.4 13.4 0 13.4 0 0 -5.4 0 -5.4 67 0 67 0 0 5.4 0 5.4 16 0 15.9 0 0.8 4 c0.3 2.3 0.6 9.5 0.6 16.2 l0 12 12.9 0 12.9 0 0 -21.4 0 -21.4 19.3 0 19.3 0 0 5.9 0 5.9 12.9 0 12.9 0 0 -5.9 0 -5.9 53.9 0 53.8 0 -0.3 21.4 -0.4 21.4 13.5 0 13.5 0 0 -21.4 0 -21.4 74 0 74 0 0 9.1 0 9.1 -5.9 0 -6 0 0.3 12.1 0.3 12 5.7 0.3 5.6 0.3 0 98.1 0 98 -5.9 0 -5.9 0 0 12.3 0 12.3 5.9 0 5.9 0 0 35.4 0 35.4 -6.4 0 -6.4 0 0 12.9 0 12.9 6.4 0 6.4 0 0 51.5 0 51.5 -6.4 0 -6.4 0 0 13.4 0 13.4 6.4 0 6.4 0 0 18.8 0 18.8 -9.7 0 -9.7 0 0 -16.1 0 -16.1 -13.5 0 -13.4 0 0.5 25.5 c0.3 13.9 0.6 27 0.6 28.8 l0 3.4 15.9 0.3 15.8 0.3 0.3 15.9 0.3 15.8 6.3 0 6.4 0 0 19.3 0 19.3 -4.7 0 c-8.3 0 -8.1 -0.1 -8.1 13 l0 11.7 6.4 0 6.4 0 0 19.3 0 19.3 -6.4 0 -6.4 0 0 12.3 0 12.3 6.4 0 6.4 0 0 132.4 0 132.4 -6.4 0 -6.4 0 0 9.1 0 9.1 -20.4 0 -20.4 0 0 -9.1 0 -9.1 -12.9 0 -12.9 0 0 9.1 0 9.1 -19.8 0 -19.8 0 0 -9.1 0 -9.1 -12.9 0 -12.9 0 0 9.1 0 9.1 -150.1 0 -150.1 0 0 -9.1 0 -9.1 -12.3 0 -12.3 0 0 9.1 0 9.1 -19.3 0 -19.3 0 0 -9.1 0 -9.1 -12.3 0 -12.3 0 0 9.1 0 9.1 -19.8 0 -19.8 0 0 -25.2 0 -25.2 -9.1 0 -9.1 0 0 16.1 0 16.1 -12.3 0 -12.3 0 0 9.1 0 9.1 -3.8 0 -3.8 0 0 -9.1 0 -9.1 -12.9 0 -12.9 0 0 9.1 0 9.1 -19.8 0 -19.8 0 0 -9.1 0 -9.1 -12.9 0 -12.9 0 0 9.1 0 9.1 -20.9 0 -20.9 0 0 -9.1 0 -9.1 -12.9 0 -12.9 0 0 9.1 0 9.1 -19.8 0 -19.8 0 0 -9.1 0 -9.1 -12.3 0 -12.3 0 0 9.1 0 9.1 -19.8 0 -19.8 0 0 -9.1 0 -9.1 -12.9 0 -12.9 0 0 9.1 0 9.1 -19.8 0 -19.8 0 0 -25.2 0 -25.2 -12.3 0 -12.3 0 0 25.2 0 25.2 -36.5 0 -36.5 0 0 -9.7 0 -9.8 -12.5 0.3 -12.7 0.3 -0.3 9.4 -0.3 9.3 -19.7 0 -19.8 0 0 -7.4 c0 -11.3 0.6 -10.8 -13.5 -10.8 l-12.2 0 0 9.1 0 9.1 -19.8 0 -19.7 0 -0.3 -9.3z m832.3 -28.2 l0 -12.9 -12.9 0 -12.9 0 0 12.1 c0 6.8 0.3 12.5 0.8 12.9 0.3 0.4 6.1 0.8 12.9 0.8 l12.1 0 0 -12.9z m195.2 0.6 l0 -12.1 -4 -0.8 c-2.3 -0.3 -7.8 -0.6 -12.3 -0.6 l-8.4 0 0 12.9 0 12.9 12.3 0 12.3 0 0 -12.2z m66.5 -0.1 l0 -12.2 -3.4 -0.6 c-1.9 -0.3 -7.6 -0.5 -12.7 -0.3 l-9.1 0.3 -0.3 12.7 -0.3 12.5 13 0 12.9 0 0 -12.3z m65.4 -0.5 l0 -12.9 -7.2 0 c-4.1 0 -9.9 0.3 -12.9 0.6 l-5.7 0.8 0 12.1 0 12.2 12.9 0 12.9 0 0 -12.9z m-833.2 -0.5 l0 -12.3 -12.9 0 -12.9 0 0 12.3 0 12.3 12.9 0 12.9 0 0 -12.3z m65.4 0 l0 -12.3 -12.9 0 -12.9 0 0 12.3 0 12.3 12.9 0 12.9 0 0 -12.3z m131.9 0 l0 -12.3 -12.9 0 -12.9 0 0 3.5 c0 1.8 0.3 7.4 0.8 12.3 l0.6 8.8 12.1 0 12.2 0 0 -12.3z m243.2 0.4 l-0.3 -11.9 -12 -0.5 -12.1 -0.4 0 12.3 0 12.4 12.3 0 12.4 0 -0.3 -11.9z m130.8 -0.1 l-0.3 -12.1 -12.5 -0.3 -12.7 -0.3 0 12.4 0 12.3 12.9 0 13 0 -0.3 -12z m65.6 0.3 c0 -13.7 1 -13 -15.2 -13 l-10.5 0 0 12.3 0 12.3 12.9 0 12.9 0 0 -11.7z m-931.3 -1.2 l0 -11.8 -12 0 -12.1 0 0 11.8 0 11.8 12.1 0 12 0 0 -11.8z m524.9 -31.1 l0 -12.9 -12.9 0 -12.9 0 0 12.1 c0 6.8 0.3 12.5 0.8 12.9 0.3 0.4 6.1 0.8 12.9 0.8 l12.1 0 0 -12.9z m83.4 -0.2 l0.3 -12.7 -13.5 0 -13.4 0 0 12.1 c0 6.8 0.3 12.5 0.8 13 0.4 0.3 6.3 0.5 13.1 0.4 l12.4 -0.3 0.3 -12.5z m62.4 0.2 l0 -12.9 -12.3 0 -12.3 0 0 12.9 0 12.9 12.3 0 12.3 0 0 -12.9z m96.9 11.2 c0.3 -1 0.6 -6.8 0.6 -12.9 l0 -11.2 -13.4 0 -13.4 0 0 12.1 c0 6.8 0.3 12.5 0.8 12.9 0.3 0.4 6.1 0.8 12.8 0.8 10 0 12.1 -0.3 12.7 -1.7z m65 -27.2 l0 -29 -12.9 0 -12.9 0 0 29 0 29 12.9 0 12.9 0 0 -29z m65.4 0 l0 -29 -12.9 0 -12.9 0 0 29 0 29 12.9 0 12.9 0 0 -29z m65.4 16.1 l0 -12.9 -12.9 0 -12.9 0 0 12.9 0 12.9 12.9 0 12.9 0 0 -12.9z m65.4 0 l0 -12.9 -12.9 0 -12.9 0 0 12.9 0 12.9 12.9 0 12.9 0 0 -12.9z m65.4 -16.1 l0 -29 -12.9 0 -12.9 0 0 29 0 29 12.9 0 12.9 0 0 -29z m-995.1 15.7 c0 -6.8 -0.3 -12.4 -0.8 -12.7 -0.5 -0.2 -6.3 -0.2 -12.9 0 l-12.1 0.4 0 12.2 0 12.2 12.9 0 12.9 0 0 -12.2z m129.8 -0.1 l0 -12.3 -12.9 0 -12.9 0 0 12.3 0 12.3 12.9 0 12.9 0 0 -12.3z m97.6 0 l0 -12.3 -12.9 0 -12.9 0 0 12.3 0 12.3 12.9 0 12.9 0 0 -12.3z m159.6 -19.4 l5.6 -0.8 0 -12.1 0 -12.2 -12.9 0 -12.9 0 0 12.2 0 12.3 3.5 0.4 c6 0.8 10.7 0.8 16.6 0.1z m89.2 -12.2 l0 -12.9 -15 0 -15 0 0 -16.1 0 -16.1 -23.1 0 -23.1 0 0 12.9 0 12.9 16.1 0 16.1 0 0 15.3 c0 8.5 0.3 15.8 0.8 16.1 0.3 0.4 10.3 0.8 22 0.8 l21.2 0 0 -12.9z m64.3 0 l0 -12.9 -12.3 0 -12.3 0 0 12.9 0 12.9 12.3 0 12.3 0 0 -12.9z m95.4 0 l0 -12.9 -12.3 0 -12.3 0 0 12.9 0 12.9 12.3 0 12.3 0 0 -12.9z m261.6 0 l0 -13 -13.1 0.3 -13.2 0.3 -0.3 12.7 -0.3 12.5 13.5 0 13.4 0 0 -12.9z m-930.8 -0.5 l0 -12.3 -12.9 0 -12.9 0 0 12.3 0 12.3 12.9 0 12.9 0 0 -12.3z m130.8 0 l0 -12.3 -12.9 0 -12.9 0 0 12.3 0 12.3 12.9 0 12.9 0 0 -12.3z m65.4 0 l0 -12.3 -12.9 0 -12.9 0 0 12.3 0 12.3 12.9 0 12.9 0 0 -12.3z m164.1 0 l0 -12.3 -13.9 0 -13.9 0 0 12.3 0 12.3 13.9 0 13.9 0 0 -12.3z m-394.5 -21.1 c0.2 -4.1 -0.2 -6.8 -1.3 -7.1 -0.5 -0.2 -1 -3.8 -1 -7.8 l0 -7.4 -3.8 0 c-2 0 -3.8 0.5 -3.8 1.1 0 0.6 -1.7 1.1 -3.8 1.1 -2 0 -3.8 -0.4 -3.8 -1.1 0 -0.5 -1.4 -1.1 -3.2 -1.1 l-3.2 0 0 12.3 0 12.3 11.8 0 c11.5 0 11.8 -0.1 11.9 -2.4z m66.4 -10.5 l0 -12.9 -12.3 0 -12.3 0 0 12.9 0 12.9 12.3 0 12.3 0 0 -12.9z m66.3 0.3 l-0.3 -12.7 -12.5 -0.3 -12.7 -0.3 0 13 0 12.9 12.9 0 13 0 -0.3 -12.5z m64.6 -0.3 l0 -12.9 -12.9 0 -12.9 0 0 12.9 0 12.9 12.9 0 12.9 0 0 -12.9z m97.6 0 l0 -12.9 -12.9 0 -12.9 0 0 12.9 0 12.9 12.9 0 12.9 0 0 -12.9z m65.4 0 l0 -12.9 -12.9 0 -12.9 0 0 12.9 0 12.9 12.9 0 12.9 0 0 -12.9z m67.3 0.3 l-0.3 -12.7 -12.5 -0.3 -12.7 -0.3 0 13 0 12.9 12.9 0 13 0 -0.3 -12.5z m148.2 -0.3 l0 -12.9 -12.9 0 -12.9 0 0 12.9 0 12.9 12.9 0 12.9 0 0 -12.9z m193 0 l0 -12.9 -12.9 0 -12.9 0 0 12.9 0 12.9 12.9 0 12.9 0 0 -12.9z m65.4 0 l0 -12.9 -12.9 0 -12.9 0 0 12.9 0 12.9 12.9 0 12.9 0 0 -12.9z m97.4 0.3 l-0.3 -12.7 -12.5 -0.3 -12.7 -0.3 0 13 0 12.9 12.9 0 13 0 -0.3 -12.5z m98.7 0 l-0.3 -12.7 -13.1 -0.3 -13.2 -0.3 0 13 0 12.9 13.4 0 13.5 0 -0.3 -12.5z m-1061.4 -32.5 l0 -12.9 -12.9 0 -12.9 0 0 12.9 0 12.9 12.9 0 12.9 0 0 -12.9z m65.2 0.3 l-0.3 -12.7 -12.5 -0.3 -12.7 -0.3 0 13 0 12.9 12.9 0 13 0 -0.3 -12.5z m65.8 -9 c0.3 -11.8 0.3 -25.1 0 -29.5 l-0.5 -7.9 -12.7 0 -12.8 0 0 29.5 0 29.5 12.8 0 12.7 0 0.5 -21.6z m65.5 -1.7 c0.3 -12.9 0.4 -26.2 0 -29.5 l-0.6 -6.2 -12.7 0 -12.8 0 0 29.5 0 29.5 12.7 0 12.8 0 0.6 -23.3z m97 10.7 l-0.3 -12.7 -12.5 -0.3 -12.7 -0.3 0 13 0 12.9 12.9 0 13 0 -0.3 -12.5z m408.8 -0.3 l0 -12.9 -12.3 0 -12.3 0 0 12.9 0 12.9 12.3 0 12.3 0 0 -12.9z m65.4 7.3 c0 -3.1 -0.3 -9 -0.8 -13 l-0.6 -7.3 -12.4 0.3 -12.4 0.3 -0.3 12.7 -0.3 12.5 13.5 0 13.4 0 0 -5.6z m64.3 -7.3 l0 -12.9 -12.9 0 -12.9 0 0 12.9 0 12.9 12.9 0 12.9 0 0 -12.9z m98.4 0.3 c-0.3 -12.2 -0.4 -12.7 -2.7 -13 -2 -0.3 -2.5 -1.1 -2.5 -4.1 0 -3.2 0.3 -3.6 2.7 -3.6 l2.7 0 0 -12.9 0 -12.9 -13.3 0 -13.4 0 0 29.5 0 29.5 13.4 0 13.4 0 -0.3 -12.5z m163.2 -0.3 l0 -12.9 -12.9 0 -12.9 0 0 12.9 0 12.9 12.9 0 12.9 0 0 -12.9z m-464.3 -17.7 c7.6 -7.6 9.8 -9.1 12.5 -9.1 3 0 3.4 0.3 3.8 3.5 l0.3 3.4 12.1 0.3 12 0.3 0 -13 0 -12.9 -3.2 0 c-3 0 -3.2 -0.3 -3.2 -4 0 -5.4 5.3 -11 10.4 -11 3.3 0 3.5 0.2 3.5 3.8 l0 3.8 12.3 0 12.3 0 0 -12.3 c0 -12.2 0 -12.3 -2.7 -13 -2.3 -0.5 -2.7 -1.3 -2.7 -4.5 0 -5 3.4 -8.8 8.1 -8.8 3 0 3.5 0.4 4.2 3.2 l0.8 3.2 12.2 0 12.2 0 0 -16.1 0 -16.1 16.6 0 16.6 0 0 -12.3 0 -12.3 -4.3 0 c-4.1 0 -4.3 -0.1 -4.3 -3.4 0 -4.8 5.6 -10.5 10.4 -10.5 3.3 0 3.5 0.2 3.5 3.8 l0 3.8 13.4 0 13.4 0 0 -12.9 0 -12.9 -4.4 0 c-4.3 0 -4.3 0 -4 -3.8 0.3 -3.3 5.4 -8.8 47.3 -50.9 l47.1 -47.2 5.8 0 5.8 0 0 -6 0 -6 17 -17 c14.7 -14.7 17.5 -17 20.4 -17 2.6 0 3.4 0.5 4 2.7 0.8 2.9 2.6 2.7 2.6 -0.4 0 -1 1.5 -3.4 3.3 -5.3 2.5 -2.6 4.3 -3.4 7 -3.4 2.9 0 3.6 -0.4 3.6 -2.1 0 -1.3 0.8 -2.1 1.7 -2.1 1 0 2.9 -1.2 4.3 -2.8 2.5 -2.6 2.6 -3.4 2.6 -16.6 l0 -13.8 -6.4 0 c-3.5 0 -6.4 0.4 -6.4 1.1 0 0.6 -1.6 1.1 -3.5 1.1 -2.9 0 -4.7 -1.2 -10.2 -6.8 l-6.6 -6.6 0.8 -10.6 0.6 -10.6 -10.6 0.8 -10.6 0.6 -6.8 -6.8 -6.6 -6.9 0.6 -9.8 0.8 -9.9 -10.7 0 -10.7 0 -6.6 -7 -6.6 -6.9 0.8 -9.3 0.8 -9.3 -9.4 0.8 -9.5 0.8 -32.5 -32.5 c-29.3 -29.3 -32.5 -32.8 -32.5 -35.9 l0 -3.5 9.1 0 9.1 0 0 -12.9 0 -12.9 -12.9 0 -12.9 0 0 5.7 c0 4.9 0.4 6.1 3.2 8.8 2.4 2.3 3.2 4.1 3.2 6.6 0 3.3 -0.2 3.5 -3.5 3.5 -3.1 0 -7.5 -4 -46.6 -43.2 -41.7 -41.7 -43.2 -43.4 -42.9 -47 l0.3 -3.6 7.8 -0.3 7.7 -0.3 0 -12.2 0 -12.3 -12.3 0 -12.3 0 0 8 0 8 -3.4 0 c-3.1 0 -6.1 -2.6 -26.8 -23.3 -20.9 -20.9 -23.4 -23.7 -23.4 -26.8 l0 -3.5 7.5 0 7.5 0 0 -28.4 0 -28.4 -12.9 0 -12.9 0 0 27.8 0 27.8 -3.3 0.6 c-2.5 0.4 -8 5.3 -20.7 17.8 -13.9 13.7 -18 17.2 -20.4 17.2 -2.3 0 -5.3 -2.5 -14.3 -11.8 l-11.5 -11.8 0.3 -33.8 0.3 -33.8 -10.3 0 -10.3 0 0 15.5 0 15.5 -16.1 0 -16.1 0 0 13 0 13 10.5 -0.4 10.4 -0.3 0.3 3.6 c0.3 3.5 -0.9 4.9 -27.3 31.4 -24.9 24.9 -28 27.7 -31.1 27.7 -3.3 0 -3.5 -0.2 -3.5 -3.6 0 -2 0.5 -4.1 1.1 -4.4 0.6 -0.3 1.1 -4.3 1.1 -8.7 l0 -7.9 -12.9 0 -12.9 0 0 12.3 0 12.3 11.8 0 11.8 0 0 3.4 c0 3.2 -4.1 7.6 -43.6 47.2 -39.7 39.7 -44.1 43.8 -47.2 43.8 -3.3 0 -3.5 -0.2 -3.5 -3.5 0 -2.5 0.9 -4.4 2.9 -6.4 2.7 -2.5 3 -3.4 2.7 -8.1 -0.4 -4.9 -0.6 -5.5 -3 -5.5 l-2.6 0 0 -16.1 0 -16.1 -12.9 0 -12.9 0 0 28.4 0 28.4 12.4 0 12.3 0 -0.3 3.8 c-0.3 3.2 -4.1 7.5 -32.4 35.8 l-32 32.2 -12.4 -0.6 -12.3 -0.6 0.6 12.9 0.6 12.8 -29.2 29.2 c-24 24 -29.7 29.2 -32.2 29.2 -2.5 0 -2.9 0.4 -2.9 2.8 0 2.1 -2.4 5.4 -9.1 12.3 -13.4 13.9 -13.4 16.2 0.1 30 l9.1 9.2 -0.8 8.4 -0.8 8.4 8.7 -0.8 8.8 -0.8 9.1 9.1 c8 8 9.1 9.7 9.1 13 0 2 -0.4 3.8 -1.1 3.8 -0.5 0 -1.1 1.7 -1.1 3.8 l0 3.8 8.7 0 8.7 0 8 8 8 8 -0.8 7.9 -0.8 7.9 8.9 0.4 9 0.4 10.4 10.6 c8.9 9.1 10.5 11.3 10.5 14.3 0 3.1 -0.3 3.4 -3.2 3.4 -1.7 0 -3.2 0.5 -3.2 1.1 0 0.6 3.3 1.1 7.8 1.1 l7.7 0 41.7 41.7 41.7 41.7 -0.8 6 -0.8 6 6.8 0 6.8 0 11.7 11.7 c11.2 11.2 11.6 11.7 11.2 15.8 l-0.3 4.2 4.8 0.3 c4.6 0.3 5.5 1 16.9 12.3 11.4 11.3 12.1 12.2 11.8 15.8 -0.3 3.6 -0.2 3.8 3.4 3.4 3.5 -0.3 4.5 0.4 16.5 12.4 11.9 12 12.7 13.1 12.2 16.5 -0.3 3.5 -0.3 3.5 3.2 3.2 3.2 -0.4 4.4 0.2 10.3 6 3.5 3.6 7.8 7 9.3 7.6 4.2 1.5 10.4 -1.8 16.6 -8.9 4.6 -5.3 5.8 -6 9.3 -6 2.8 0 4 0.4 4 1.6 0 1.3 1.9 1.6 11.3 1.6 l11.3 0 0 -6.4 0 -6.4 4.1 0 c3.9 0 4.9 0.9 15.7 11.9 6.3 6.5 13 12.4 14.9 13.3 5.1 2.1 9.3 -0.1 20.1 -10.7z m-597.3 -15 l0 -13.4 -12.9 0 -12.9 0 0 13.4 0 13.4 12.9 0 12.9 0 0 -13.4z m293.8 0 l0 -13.4 -12.9 0 -12.9 0 0 12.7 c0 7 0.3 13.1 0.8 13.4 0.3 0.4 6.1 0.8 12.9 0.8 l12.1 0 0 -13.4z m133 0 l0 -13.4 -12.9 0 -12.9 0 0 13.4 0 13.4 12.9 0 12.9 0 0 -13.4z m275.6 0 l0 -13.4 -12.3 0 -12.3 0 0 13.4 0 13.4 12.3 0 12.3 0 0 -13.4z m260.6 0.5 l0 -12.9 -12.3 0 -12.3 0 0 12.3 0 12.2 10.5 0.4 c5.7 0.1 11.3 0.4 12.3 0.5 1.6 0.2 1.8 -1.1 1.8 -12.7z m65.9 9.4 c0.3 -1.9 0.5 -7.8 0.3 -13.2 l-0.3 -9.7 -12.5 -0.3 -12.7 -0.3 0 13.5 0 13.4 12.3 0 12.2 0 0.6 -3.4z m-1061.1 -42.7 l0 -12.9 -13.4 0 -13.4 0 0 4.1 c0 2.1 0.3 7.9 0.8 12.9 l0.6 8.8 12.7 0 12.8 0 0 -12.9z m97.6 0 l0 -12.9 -12.9 0 -12.9 0 0 12.9 0 12.9 12.9 0 12.9 0 0 -12.9z m66.5 0 l0 -12.9 -12.9 0 -12.9 0 0 12.9 0 12.9 12.9 0 12.9 0 0 -12.9z m64.3 0 l0 -12.9 -12.9 0 -12.9 0 0 12.9 0 12.9 12.9 0 12.9 0 0 -12.9z m65.4 0 l0 -12.9 -12.9 0 -12.9 0 0 12.9 0 12.9 12.9 0 12.9 0 0 -12.9z m64.3 0 l0 -12.9 -12.9 0 -12.9 0 0 12.1 c0 6.8 0.3 12.5 0.8 12.9 0.3 0.4 6.1 0.8 12.9 0.8 l12.1 0 0 -12.9z m67.6 0.3 l0 -12.1 -13.9 0 c-8.6 0 -13.9 0.4 -13.9 1.1 0 0.6 0.5 1.1 1.2 1.1 0.8 0 1.1 3.4 0.8 10.7 -0.4 12.4 -1.9 11.3 14.9 11.3 l11 0 0 -12z m374.2 -3.5 l0 -16.1 32.7 0 32.7 0 0 -12.3 0 -12.2 -16.3 -0.3 -16.4 -0.3 -0.3 -15.8 -0.3 -15.9 -13 0 -13 0 0.8 14.3 c0.4 7.8 0.4 15.1 0 16.1 -0.5 1.6 -2.6 1.8 -16.6 1.8 l-16 0 0 28.4 0 28.4 12.9 0 12.9 0 0 -16.1z m97.6 3.2 l0 -12.9 -12.9 0 -12.9 0 0 12.9 0 12.9 12.9 0 12.9 0 0 -12.9z m65.4 0 l0 -12.9 -12.9 0 -12.9 0 0 12.9 0 12.9 12.9 0 12.9 0 0 -12.9z m65.4 0 l0 -12.9 -12.9 0 -12.9 0 0 12.9 0 12.9 12.9 0 12.9 0 0 -12.9z m-962.9 -31.6 l0 -12.3 -13.4 0 -13.4 0 0 12.3 0 12.3 13.4 0 13.4 0 0 -12.3z m65.4 0 l0 -12.3 -12.9 0 -12.9 0 0 12.3 0 12.3 12.9 0 12.9 0 0 -12.3z m65.4 0 l0 -12.3 -12.9 0 -12.9 0 0 12.3 0 12.3 12.9 0 12.9 0 0 -12.3z m65.4 0 l0 -12.3 -13.4 0 -13.4 0 0 12.3 0 12.3 13.4 0 13.4 0 0 -12.3z m64.3 0 l0 -12.3 -12.9 0 -12.9 0 0 12.3 0 12.3 12.9 0 12.9 0 0 -12.3z m64.3 0 l0 -12.3 -12.3 0 -12.3 0 0 12.3 0 12.3 12.3 0 12.3 0 0 -12.3z m540.5 0 l0 -12.3 -13.4 0 -13.4 0 0 12.3 0 12.3 13.4 0 13.4 0 0 -12.3z m130.8 0 l0 -12.3 -12.9 0 -12.9 0 0 12.3 0 12.3 12.9 0 12.9 0 0 -12.3z m-66.5 -0.5 l0 -11.8 -12.3 0 c-11.3 0 -15 0.9 -10.7 2.6 2 0.8 2 6.2 0 11.9 -3.2 9.1 -3.2 9.1 10.7 9.1 l12.3 0 0 -11.8z m-995.3 -31.4 l0.3 -12.7 -13.2 0.3 -13.2 0.3 -0.3 12 c-0.3 14 -1.5 13.1 14.8 12.8 l11.3 -0.1 0.3 -12.7z m97.8 -0.2 l0 -12.3 -12.9 0 -12.9 0 0 12.3 0 12.3 12.9 0 12.9 0 0 -12.3z m66.5 0 l0 -12.3 -12.9 0 -12.9 0 0 12.3 0 12.3 12.9 0 12.9 0 0 -12.3z m64.3 0.5 l0 -11.8 -12.3 0 -12.3 0 0 11.8 0 11.8 12.3 0 12.3 0 0 -11.8z m64.6 8.9 c0.2 -1.7 0.2 -7.2 0 -12.3 l-0.3 -9.4 -12.3 0 -12.2 0 0 12.3 0 12.3 12.2 0 12.3 0 0.3 -2.9z m65.2 1.2 c0 -0.9 -0.8 -2.4 -1.6 -3.2 -1.2 -1.2 -1.6 -4.1 -1.6 -10.2 l0 -8.5 -10.7 0 -10.7 0 0 11.8 0 11.8 12.3 0 c10.5 0 12.3 -0.2 12.3 -1.7z m539.4 -10.6 l0 -12.3 -12.9 0 -12.9 0 0 12.3 0 12.3 12.9 0 12.9 0 0 -12.3z m65.4 0 l0 -12.3 -12.9 0 -12.9 0 0 12.3 0 12.3 12.9 0 12.9 0 0 -12.3z m65.4 0 l0 -12.3 -12.9 0 -12.9 0 0 12.3 0 12.3 12.9 0 12.9 0 0 -12.3z m65.4 0 l0 -12.3 -5.8 0 c-3.1 0 -8.7 0.3 -12.3 0.6 l-6.5 0.8 0 8.4 c0 6.9 0.3 8.5 1.6 8.5 1.1 0 1.6 1.1 1.6 3.2 l0 3.2 10.7 0 10.7 0 0 -12.3z m-1061.6 -31.1 l0 -12.3 -12.9 0 -12.9 0 0 12.3 0 12.3 12.9 0 12.9 0 0 -12.3z m98.7 0 l0 -12.3 -12.9 0 -12.9 0 0 12.3 0 12.3 12.9 0 12.9 0 0 -12.3z m65.4 0 l0 -12.3 -12.9 0 -12.9 0 0 12.3 0 12.3 12.9 0 12.9 0 0 -12.3z m64.8 7.4 c0.3 -2.8 0.6 -8.4 0.6 -12.3 l0 -7.4 -13.4 0 -13.4 0 0 12.3 0 12.3 12.8 0 12.7 0 0.8 -4.9z m65 -7.4 l0 -12.3 -12.9 0 -12.9 0 0 12.3 0 12.3 12.9 0 12.9 0 0 -12.3z m539.4 0 l0 -12.3 -12.9 0 -12.9 0 0 12.3 0 12.3 12.9 0 12.9 0 0 -12.3z m65.4 0 l0 -12.3 -13.4 0 -13.4 0 0 11.6 c0 6.4 0.3 12 0.8 12.3 0.3 0.4 6.4 0.8 13.4 0.8 l12.7 0 0 -12.3z m64.3 10.1 c0 -1.2 -0.8 -2.9 -1.6 -3.8 -1.1 -1.1 -1.6 -3.8 -1.6 -7.5 0 -4.2 0.4 -6 1.6 -6.4 0.9 -0.4 1.6 -1.6 1.6 -2.7 0 -1.5 -0.8 -2 -3.2 -2 l-3.2 0 0 9.7 c0 9.3 -0.1 9.7 -2.4 9.7 -1.4 0 -3.4 0.8 -4.5 1.6 -1.2 0.9 -3.1 1.7 -4.3 1.8 -2.9 0.2 7.1 1.5 13.1 1.7 3.9 0.2 4.5 -0.1 4.5 -2z m131.9 -10.1 l0 -12.3 -12.9 0 -12.9 0 0 12.3 0 12.3 12.9 0 12.9 0 0 -12.3z m-898.6 -31.6 l0 -12.9 -12.9 0 -12.9 0 0 12.2 0 12.3 5.1 0.4 c2.8 0.2 8.6 0.4 12.9 0.5 l7.7 0.2 0 -12.9z m65.4 0 l0 -12.9 -13.5 0 -13.6 0 0.8 5.7 c0.3 3 0.6 8.8 0.6 12.9 l0 7.2 12.9 0 12.9 0 0 -12.9z m603.7 0 l0 -12.9 -12.9 0 -12.9 0 0 12.9 0 12.9 12.9 0 12.9 0 0 -12.9z m-897.5 -0.5 l0 -12.3 -12.9 0 -12.9 0 0 12.3 0 12.3 12.9 0 12.9 0 0 -12.3z m65.4 0 l0 -12.3 -12.9 0 -12.9 0 0 12.3 0 12.3 12.9 0 12.9 0 0 -12.3z m963.4 9 c0.3 -1.8 0.6 -7.4 0.6 -12.3 l0 -9 -13.4 0 -13.4 0 0 12.3 0 12.3 12.8 0 12.8 0 0.6 -3.3z m65 -9 l0 -12.3 -12.3 0 -12.3 0 0 12.3 0 12.3 12.3 0 12.3 0 0 -12.3z m-134 -8.5 c0 -0.9 0.9 -1.8 1.9 -2 1 -0.3 -0.4 -0.5 -3.2 -0.6 -5.5 -0.1 -5.5 -0.1 -4.5 2.5 0.9 2.1 5.8 2.3 5.8 0.2z m-927.6 -23.2 l0 -12.9 -12.9 0 -12.9 0 0 12.9 0 12.9 12.9 0 12.9 0 0 -12.9z m65.4 0.6 c0 -10.2 -0.3 -12.3 -1.7 -12.9 -1 -0.3 -6.8 -0.6 -12.9 -0.6 l-11.2 0 0 12.1 c0 6.8 0.3 12.5 0.8 12.9 0.3 0.4 6.1 0.8 12.9 0.8 l12.1 0 0 -12.2z m66.5 -0.6 l0 -12.9 -12.9 0 -12.9 0 0 12.9 0 12.9 12.9 0 12.9 0 0 -12.9z m97.6 0 l0 -12.9 -13.4 0 -13.4 0 0 12.9 0 12.9 13.4 0 13.4 0 0 -12.9z m669.1 0 l0 -12.9 -12.8 0 -12.7 0 -0.5 12.1 c-0.3 6.5 -0.3 12.3 -0.1 12.9 0.2 0.4 6.2 0.8 13.3 0.8 l12.8 0 0 -12.9z m65.4 0 l0 -12.9 -12.9 0 -12.9 0 0 12.9 0 12.9 12.9 0 12.9 0 0 -12.9z m65.4 0 l0 -12.9 -12.9 0 -12.9 0 0 12.9 0 12.9 12.9 0 12.9 0 0 -12.9z m66.3 -0.3 l0.3 -12.7 -13.2 0.3 -13.2 0.3 -0.3 11.2 c-0.1 6.2 0 11.9 0.2 12.7 0.4 1.2 3.4 1.4 13.2 1.2 l12.7 -0.3 0.3 -12.7z m-1062.5 -47.9 l0 -29 -13.4 0 -13.4 0 0 8.4 c0 4.5 0.3 17.3 0.8 28.3 l0.6 20.1 4.9 0.4 c2.7 0.2 8.5 0.4 12.8 0.5 l7.7 0.2 0 -29z m65.4 16.1 l0 -12.9 -12.9 0 -12.9 0 0 12.9 0 12.9 12.9 0 12.9 0 0 -12.9z m832.1 0.5 l0 -12.3 -12.9 0 -12.9 0 0 6.8 c0 3.6 0.3 9.2 0.6 12.3 l0.8 5.6 12.1 0 12.2 0 0 -12.3z m66.3 -0.2 l-0.3 -12.7 -12.9 0 -12.9 0 -0.3 12.7 -0.3 12.5 13.5 0 13.5 0 -0.3 -12.5z m65.4 0 l-0.3 -12.7 -12.5 -0.3 -12.7 -0.3 0 13 0 12.9 12.9 0 13 0 -0.3 -12.5z m-898.4 -32.5 l0 -13 -13.1 0.3 -13.2 0.3 -0.3 12.7 -0.3 12.5 13.5 0 13.4 0 0 -12.9z m864.9 11.4 c0.3 -0.2 0.8 -37.6 0.6 -47 l-0.2 -9.4 -13.1 0 -13 0 0.6 20.2 c0.4 11 0.8 23.8 0.8 28.3 l0 8.3 8.4 0.4 c6.6 0.2 15.2 -0.1 15.9 -0.8z m-1029 -43 l0 -13.4 -12.9 0 -12.9 0 0 13.4 0 13.4 12.9 0 12.9 0 0 -13.4z m66.1 11 c-0.3 -1.4 -0.6 -7.3 -0.6 -13.3 l0 -10.7 -9.3 0.3 c-5.3 0.1 -11 0.3 -12.9 0.3 l-3.5 0 0 12.9 0 12.9 13.5 0 c13.5 0 13.5 0 12.9 -2.4z m-98.2 -43.2 l0 -13.4 -13.4 0 -13.4 0 0 13.4 0 13.4 13.4 0 13.4 0 0 -13.4z m65.4 -0.2 l0 -13.2 -13.4 0 -13.4 0 0 13.4 0 13.5 13.4 -0.3 13.4 -0.3 0 -13.1z m1030.5 0.2 l0 -13.4 -13.4 0 -13.4 0 0 9.4 c0 5.1 -0.3 11.2 -0.6 13.4 l-0.8 4 14.2 0 14 0 0 -13.4z m-66.5 -0.5 l0 -12.9 -12.9 0 -12.9 0 0 12.9 0 12.9 12.9 0 12.9 0 0 -12.9z m-997.8 -46.9 c-0.4 -15.2 -1 -27.8 -1.1 -28 -0.5 -0.6 -32.9 -2.3 -45.3 -2.4 l-12.1 0 0 12.9 0 12.9 13.3 0 c7.3 0 14.8 0.3 16.6 0.6 l3.3 0.8 0 15.3 0 15.4 13 0 13 0 -0.8 -27.6z m65.9 14.7 l0 -12.9 -13.4 0 -13.4 0 0 12.9 0 12.9 13.4 0 13.4 0 0 -12.9z m899.7 0 l0 -13 -13.1 0.3 -13.2 0.3 -0.3 12.7 -0.3 12.5 13.5 0 13.4 0 0 -12.9z m65.4 0 l0 -12.9 -13.4 0 -13.4 0 0 12.9 0 12.9 13.4 0 13.4 0 0 -12.9z m65.4 0 l0 -12.9 -12.9 0 -12.9 0 0 12.9 0 12.9 12.9 0 12.9 0 0 -12.9z m-915 -11.4 c-0.1 -0.1 -2.5 -0.5 -5.3 -0.9 l-5.1 -0.8 0 6.2 0 6.1 5.4 -5.3 c2.9 -2.9 5.3 -5.4 5 -5.5z m-82.2 -20.8 l0 -12.9 -13.4 0 -13.4 0 0 12.9 0 12.9 13.4 0 13.4 0 0 -12.9z m65.4 0 l0 -12.9 -12.9 0 -12.9 0 0 12.9 0 12.9 12.9 0 12.9 0 0 -12.9z m767.8 0 l0 -12.9 -12.9 0 -12.9 0 0 12.9 0 12.9 12.9 0 12.9 0 0 -12.9z m65.4 0 l0 -12.9 -12.9 0 -12.9 0 0 12.9 0 12.9 12.9 0 12.9 0 0 -12.9z m-931.8 -32.2 l0 -12.9 -12.9 0 -12.9 0 0 12.9 0 12.9 12.9 0 12.9 0 0 -12.9z m66.5 0 l0 -12.9 -13.4 0 -13.4 0 0 12.9 0 12.9 13.4 0 13.4 0 0 -12.9z m64.3 0 l0 -12.9 -12.9 0 -12.9 0 0 12.9 0 12.9 12.9 0 12.9 0 0 -12.9z m703.4 0 l0 -12.9 -13.4 0 -13.4 0 0 12.9 0 12.9 13.4 0 13.4 0 0 -12.9z m65.4 0 l0 -12.9 -12.9 0 -12.9 0 0 12.9 0 12.9 12.9 0 12.9 0 0 -12.9z m65.2 -0.2 l0.3 -12.7 -13 0 -12.9 0 0 12.9 0 13 12.7 -0.3 12.5 -0.3 0.3 -12.5z m-1062.7 -32.2 l0.3 -12.7 -13.5 0 -13.4 0 0 12.1 c0 6.8 0.3 12.5 0.8 13 0.4 0.3 6.3 0.5 13.1 0.4 l12.4 -0.3 0.3 -12.5z m64.6 0.2 l0 -12.9 -12.9 0 -12.9 0 0 12.9 0 12.9 12.9 0 12.9 0 0 -12.9z m66.5 0 l0 -13 -13.1 0.3 -13.2 0.3 -0.3 12.7 -0.3 12.5 13.5 0 13.4 0 0 -12.9z m65.4 0 l0 -12.9 -12.9 0 -12.9 0 0 12.9 0 12.9 12.9 0 12.9 0 0 -12.9z m65.4 0 l0 -12.9 -13.4 0 -13.4 0 0 12.9 0 12.9 13.4 0 13.4 0 0 -12.9z m637 -16.1 l0 -29 -16.1 0 -16.1 0 0 -16.2 0 -16.3 -8.8 0.6 c-4.9 0.4 -10.9 0.8 -13.4 0.8 l-4.6 0 0 28.4 0 28.4 16.1 0 16.1 0 0 16.1 0 16.1 13.4 0 13.4 0 0 -29z m130.8 16.1 l0 -12.9 -12.9 0 -12.9 0 0 12.9 0 12.9 12.9 0 12.9 0 0 -12.9z m65.7 5.7 c0.4 -4.1 0.8 -9.9 0.8 -12.9 l0 -5.7 -12.9 0 -12.9 0 0 12.9 0 12.9 12.2 0 12.1 0 0.6 -7.2z m-785.3 -18.2 c0 -0.2 -2.1 -0.3 -4.8 -0.3 l-4.8 0 0 5 0 5 4.8 -4.7 c2.7 -2.6 4.8 -4.8 4.8 -5z m-17 -8.6 c0.2 -1.1 0.3 -28.3 0.1 -60.6 l-0.2 -58.8 -16.1 0 -16.1 0 0 -18.8 0 -18.8 16.1 0 16.1 0 0 -12.3 0 -12.3 -16.1 0 -16.1 0 -0.2 -8.3 c-0.3 -10.5 0.1 -25.5 0.9 -30 0.2 -1.9 1.3 -4.3 2.3 -5.3 1.4 -1.4 1.5 -2.1 0.5 -3.8 -0.8 -1.1 -1.3 -5.1 -1.3 -9 l0 -7 -13.9 0 -13.9 0 0 15.5 0 15.5 -16.1 0 -16.1 0 0 12.9 0 12.9 16.1 0 16.1 0 0 18.8 0 18.8 -32.2 0 -32.2 0 0 12.3 0 12.3 32.2 0 32.2 0 0 16.1 0 16.1 16.1 0 16.1 0 0 24.4 c0 13.4 0.3 34.9 0.8 47.7 l0.6 23.3 12 0 c10.6 0 12.1 -0.2 12.4 -1.8z m769.8 -11 l0 -12.9 -12.9 0 -12.9 0 0 12.9 0 12.9 12.9 0 12.9 0 0 -12.9z m66.5 0 l0 -12.9 -13.4 0 -13.4 0 0 12.9 0 12.9 13.4 0 13.4 0 0 -12.9z m-1031.6 0 l0 -11.8 -11.3 0 c-9.4 0 -11.3 0.3 -11.3 1.6 0 1 -0.8 1.9 -1.6 2.3 -2 0.9 -2.3 15.9 -0.2 18.1 1 1.2 4.3 1.5 12.9 1.6 l11.5 0 0 -11.8z m-65.4 -32.2 l0 -12.9 -12.9 0 -12.9 0 0 12.9 0 12.9 12.9 0 12.9 0 0 -12.9z m98.7 -15.5 l0 -28.4 -16.6 0 -16.6 0 0 -16.1 0 -16.1 -45.6 0 -45.6 0 0 12.9 0 12.9 32.2 0 32.2 0 0 13.2 c0 19.6 -1.6 17.9 17.3 17.9 l16 0 0 16.1 0 16.1 13.4 0 13.4 0 0 -28.4z m97.6 15.5 l0 -12.9 -12.9 0 -12.9 0 0 12.9 0 12.9 12.9 0 12.9 0 0 -12.9z m702.4 0 l0 -12.9 -13.4 0 -13.4 0 0 12.9 0 12.9 13.4 0 13.4 0 0 -12.9z m66.5 0 l0 -12.9 -12.9 0 -12.9 0 0 12.9 0 12.9 12.9 0 12.9 0 0 -12.9z m-98.7 -31.1 l0 -12.9 -13.4 0 -13.4 0 0 12.9 0 12.9 13.4 0 13.4 0 0 -12.9z m-898.6 -0.5 l0 -12.3 -13.4 0 -13.4 0 0 12.3 0 12.3 13.4 0 13.4 0 0 -12.3z m832.1 0 l0 -12.3 -12.2 0 c-10.2 0 -12.3 0.3 -12.9 1.7 -0.9 2.1 -0.9 10.2 0 17.4 l0.8 5.6 12.1 0 12.2 0 0 -12.3z m133 0 l0 -12.3 -13.3 0 -13.2 0 -0.6 7.3 c-0.4 4 -0.8 9.4 -0.8 12.3 l0 5 13.9 0 13.9 0 0 -12.3z m97.6 -0.8 l0 -13 -18.4 0.6 c-10.2 0.4 -23.3 0.8 -29 0.8 l-10.5 0 0 12.3 0 12.3 29 0 29 0 0 -13.1z m-641.2 -35.4 l0 -8.4 -16.1 0 -16.1 0 0 -15.5 0 -15.5 -13.6 0 -13.5 0 0.6 19.5 c0.4 10.6 0.8 23.5 0.8 28.4 l0 8.9 16.1 0 16.1 0 0 8.3 0 8.4 12.9 -12.9 12.9 -12.9 0 -8.3z m346.1 4.8 l-0.3 -12.7 -12.9 0 -12.9 0 -0.3 12.7 -0.3 12.5 13.5 0 13.5 0 -0.3 -12.5z m97.8 -0.3 l0 -12.9 -12.9 0 -12.9 0 0 12.9 0 12.9 12.9 0 12.9 0 0 -12.9z m66.5 -3.2 l0 -16.1 16.6 0 16.6 0 0 -12.3 0 -12.3 -30 0 -30 0 0 28.4 0 28.4 13.4 0 13.4 0 0 -16.1z m65.4 3.8 l0 -12.3 -12.9 0 -12.9 0 0 12.3 0 12.3 12.9 0 12.9 0 0 -12.3z m99.7 -0.5 l0 -12.9 -13.9 0 -13.9 0 0 12.9 0 12.9 13.9 0 13.9 0 0 -12.9z m-772.1 -31.1 l0 -12.9 -12.9 0 -12.9 0 0 12.9 0 12.9 12.9 0 12.9 0 0 -12.9z m738.8 0 l0 -12.9 -14.4 0 c-15.9 0 -17.8 0.3 -17.8 3.2 0 2.4 -2.9 3.4 -8.4 3.1 -7.4 -0.4 -7.7 -0.2 -7.7 4.1 0 2.1 -0.8 4.8 -1.8 5.9 -1.6 1.8 -1.6 1.9 1.2 1.9 3.2 0 6 2.1 6 4.7 0 1.8 4.4 2.1 29.8 2.6 l13.1 0.2 0 -12.9z m-932.9 -0.5 l0 -12.3 -13.4 0 -13.4 0 0 12.3 0 12.3 13.4 0 13.4 0 0 -12.3z m669.1 0 l0 -12.3 -12.9 0 -12.9 0 0 12.3 0 12.3 12.9 0 12.9 0 0 -12.3z m324.9 4.8 c0 -5.8 0.4 -7.7 1.6 -8.1 1.1 -0.4 1.6 -2.1 1.6 -4.8 l0 -4.2 -12.3 0 -12.3 0 0 10.2 c0 6.1 0.4 10.2 1.1 10.2 0.6 0 1.1 -1.2 1.1 -2.7 0 -2.4 0.4 -2.7 3.5 -2.7 4 0 9.3 4.3 9.3 7.5 0 1.7 0.8 2.1 3.2 2.1 l3.2 0 0 -7.5z m-1060.5 -35.9 l0 -12.3 -12.9 0 -12.9 0 0 12.3 0 12.3 12.9 0 12.9 0 0 -12.3z m292.7 0 l0 -12.3 -12.9 0 -12.9 0 0 12.3 0 12.3 12.9 0 12.9 0 0 -12.3z m64.3 0 l0 -12.3 -13.4 0 -13.4 0 0 12.3 0 12.3 13.4 0 13.4 0 0 -12.3z m314.2 0 l0 -12.3 -12.9 0 -12.9 0 0 12.3 0 12.3 12.9 0 12.9 0 0 -12.3z m163 0 l0 -12.3 -13.4 0 -13.4 0 0 11.6 c0 6.4 0.3 12 0.8 12.3 0.3 0.4 6.4 0.8 13.4 0.8 l12.7 0 0 -12.3z m99.9 -2.9 l0.3 -15.3 32.5 -0.3 32.4 -0.2 0 -9 c0 -4.8 0.3 -17.7 0.8 -28.3 l0.6 -19.5 -13.5 0 -13.6 0 0 15.5 0 15.5 -19.3 0 -19.3 0 0 -15.5 0 -15.5 -13.4 0 -13.4 0 0 15.5 0 15.5 -34.3 0 -34.3 0 0 12.9 0 12.9 33.8 0 33.8 0 0 15.5 0 15.5 13.4 0 13.3 0 0.3 -15.2z m98.4 2.9 l0 -12.3 -13.4 0 -13.4 0 0 12.3 0 12.3 13.4 0 13.4 0 0 -12.3z m-1064.8 -31.6 l0 -12.9 -13.4 0 -13.4 0 0 12.1 c0 6.8 0.3 12.5 0.8 12.9 0.3 0.4 6.4 0.8 13.4 0.8 l12.7 0 0 -12.9z m65.4 0 l0 -12.9 -13.4 0 -13.4 0 0 12.9 0 12.9 13.4 0 13.4 0 0 -12.9z m227.3 3.4 c0 -5.3 -0.3 -13.9 -0.6 -19.3 -0.6 -8.7 -1 -9.9 -2.7 -9.9 -1.5 0 -2 -0.8 -2 -2.8 0 -2.3 -0.4 -2.7 -2.4 -2.4 -1.9 0.2 -2.7 1.4 -3.4 4.9 -0.9 3.4 -1.5 4.5 -3.2 4.5 -1.2 0 -3.2 1.2 -4.4 2.6 -1.2 1.4 -3.1 2.7 -4.3 2.9 -2 0.4 -2.1 1.5 -2.5 14.7 l-0.3 14.2 13 0 12.9 0 0 -9.4z m64.1 -19 l0.3 -28.4 -12.9 0 -13 0 0 28.4 0 28.4 12.7 0 12.5 0 0.3 -28.4z m64.6 15.5 l0 -12.8 -12.5 0.2 -12.7 0.3 -0.3 11.2 c-0.1 6.1 0 11.8 0.2 12.5 0.4 1.1 3.8 1.4 13 1.4 l12.3 0 0 -12.9z m249.9 0 l0 -12.9 -12.3 0 -12.3 0 0 12.9 0 12.9 12.3 0 12.3 0 0 -12.9z m131.1 11.4 c1 -0.8 1.8 -2.3 1.8 -3.2 0 -1.4 1.4 -1.7 8.6 -1.7 5 0 8.6 0.4 8.6 1.1 0 0.6 1.4 1.1 3.2 1.1 2.4 0 3 -0.4 2.6 -1.6 -0.4 -0.9 -1.5 -1.6 -2.5 -1.6 -1 0 -2.3 -0.4 -2.8 -1 -0.6 -0.6 -3.8 -1.2 -7 -1.4 l-5.9 -0.3 -1 -5 c-0.4 -2.9 -1.3 -5.1 -1.8 -5.1 -0.5 0 -1 -0.5 -1 -1.2 0 -3.4 -3.1 -4.2 -17 -4.2 l-14 0 0 12.9 0 12.9 13.2 0 c9.1 -0.1 13.6 -0.5 15 -1.5z m294.6 -11.4 l0 -12.9 -13.4 0 -13.4 0 0 12.9 0 12.9 13.4 0 13.4 0 0 -12.9z m-252.1 -19.1 l21.6 -0.5 0 -12.1 0 -12.2 -29.5 0 -29.5 0 0 12.9 0 12.9 7 0 c4.8 0 7 0.4 7 1.4 0 0.9 0.3 0.9 1 -0.2 0.8 -1.2 5.6 -1.6 22.5 -2z m-877.1 -12 l0 -12.9 -13.4 0 -13.4 0 0 12.2 c0 8.8 0.4 12.4 1.4 12.8 0.6 0.3 6.8 0.6 13.4 0.6 l12 0.1 0 -12.9z m163.9 -3.4 l0.3 -15.9 15.4 0 15.5 0 0 -12.9 0 -12.9 -29 0 -29 0 0 29 0 29.1 13.2 -0.3 13.1 -0.3 0.3 -15.8z m636.7 8 c-0.3 -4.5 -0.6 -10.3 -0.6 -12.9 l0 -4.6 -12.9 0 -12.9 0 0 12.9 0 12.9 13.5 0 13.6 0 -0.8 -8.3z m-736.3 -5.1 l0 -12.3 -12.9 0 -12.9 0 0 12.3 0 12.3 12.9 0 12.9 0 0 -12.3z m670.2 0 l0 -12.3 -12.3 0 -12.3 0 0 12.3 0 12.3 12.3 0 12.3 0 0 -12.3z m-410.7 -13.9 l0 -4.8 16.1 0 16.1 0 0 -12.9 0 -12.9 -15.5 0 -15.5 0 0 -15.5 0 -15.5 -12.9 0 -12.9 0 0 29 c0 25 0.2 29 1.6 29 1.1 0 1.6 1.1 1.6 3.1 0 3.8 1.8 4.6 8.5 3.9 2.7 -0.3 6.4 -0.1 8.1 0.4 1.8 0.5 3.5 1.1 4.1 1.1 0.4 0.1 0.8 -2 0.8 -4.7z m-291.7 -17.7 l0 -12.9 -12.9 0 -12.9 0 0 12.9 0 12.9 12.9 0 12.9 0 0 -12.9z m421.4 0 l0 -12.9 -12.9 0 -12.9 0 0 12.9 0 12.9 12.9 0 12.9 0 0 -12.9z m64.3 0 l0 -12.9 -12.9 0 -12.9 0 0 12.9 0 12.9 12.9 0 12.9 0 0 -12.9z m90.1 0 l0 -12.9 -27.9 0 -27.9 0 0 12.9 0 12.9 27.9 0 27.9 0 0 -12.9z m95.4 0 l0 -12.9 -12.3 0 -12.3 0 0 12.1 c0 6.8 0.3 12.5 0.8 12.9 0.3 0.4 5.9 0.8 12.3 0.8 l11.6 0 0 -12.9z m129.8 0 l0 -12.9 -13.4 0 -13.4 0 0 12.9 0 12.9 13.4 0 13.4 0 0 -12.9z m133 0 l0 -12.9 -30.6 0 -30.6 0 0 12.9 0 12.9 30.6 0 30.6 0 0 -12.9z m65.4 0 l0 -12.9 -13.4 0 -13.4 0 0 12.9 0 12.9 13.4 0 13.4 0 0 -12.9z m64.9 0 l0 -12.3 -13.1 -0.3 -13.2 -0.3 0 13 0 13 13.2 -0.3 13.1 -0.3 0 -12.3z m-1096.4 -31.6 l0 -12.3 -13.4 0 -13.4 0 0 12.3 0 12.3 13.4 0 13.4 0 0 -12.3z m64.3 0 l0 -12.3 -12.9 0 -12.9 0 0 12.3 0 12.3 12.9 0 12.9 0 0 -12.3z m66.5 0 l0 -12.3 -12.9 0 -12.9 0 0 12.3 0 12.3 12.9 0 12.9 0 0 -12.3z m97.6 -0.5 l0 -12.9 -13.4 0 -13.4 0 0 12.9 0 12.9 13.4 0 13.4 0 0 -12.9z m160.4 6.3 c-0.3 -3.6 -0.6 -9.2 -0.6 -12.3 l0 -5.8 -12.3 0 -12.3 0 0 12.3 0 12.3 13 0 13.1 0 -0.8 -6.5z m96.9 -5.8 l0 -12.3 -12.9 0 -12.9 0 0 12.3 0 12.3 12.9 0 12.9 0 0 -12.3z m154.4 -0.5 l0 -12.9 -12.9 0 -12.9 0 0 12.9 0 12.9 12.9 0 12.9 0 0 -12.9z m424.6 0 l0 -12.9 -13.4 0 -13.4 0 0 12.9 0 12.9 13.4 0 13.4 0 0 -12.9z"/>
 </g>
 <g fill="#abcede">
  <path d="M0 983.9 l0 -11.4 12.1 0.3 12 0.3 0.3 11 0.3 10.9 -12.4 0 -12.3 0 0 -11.3z"/>
  <path d="M57.9 984.4 l0 -10.7 15.4 0 c13.1 0 15.5 0.2 16.1 1.7 0.3 1 0.6 5.8 0.6 10.7 l0 9 -16.1 0 -16.1 0 0 -10.7z"/>
  <path d="M123.5 984.2 l0.3 -11 15.9 -0.3 15.8 -0.3 0 11.4 0 11.3 -16.1 0 -16.2 0 0.3 -10.9z"/>
  <path d="M222 967.7 l0 -27.5 2.5 0.6 c1.3 0.3 8.3 0.6 15.5 0.6 l13.1 0 0 26.8 0 26.8 -15.5 0 -15.5 0 0 -27.5z"/>
  <path d="M286.3 984.4 l0 -10.7 16.1 0 16.1 0 0 10.7 0 10.7 -16.1 0 -16.1 0 0 -10.7z"/>
  <path d="M351.7 984.4 l0 -10.7 15.5 0 15.5 0 0 10.7 0 10.7 -15.5 0 -15.5 0 0 -10.7z"/>
  <path d="M416.1 984.4 l0 -10.7 16.1 0 16.1 0 0 10.7 0 10.7 -16.1 0 -16.1 0 0 -10.7z"/>
  <path d="M483.6 984.4 l0 -10.7 16.1 0 16.1 0 0 10.7 0 10.7 -16.1 0 -16.1 0 0 -10.7z"/>
  <path d="M549 984.4 l0 -10.7 16.1 0 16.1 0 0 10.7 0 10.7 -16.1 0 -16.1 0 0 -10.7z"/>
  <path d="M582.3 984.4 l0 -10.7 12.3 0 12.3 0 0 -16.1 0 -16.1 12.3 0 12.3 0 0 26.8 0 26.8 -24.7 0 -24.7 0 0 -10.7z"/>
  <path d="M664.8 984.4 l0 -10.7 15.5 0 15.5 0 0 10.7 0 10.7 -15.5 0 -15.5 0 0 -10.7z"/>
  <path d="M728.1 984.4 l0 -10.7 15.5 0 15.5 0 0 10.7 0 10.7 -15.5 0 -15.5 0 0 -10.7z"/>
  <path d="M1053 984.4 l0 -10.7 16.1 0 16.1 0 0 10.7 0 10.7 -16.1 0 -16.1 0 0 -10.7z"/>
  <path d="M1118.4 984.4 l0 -10.7 -16 0 -16.1 0 -0.3 -15.5 c-0.2 -12.2 0 -15.7 1.1 -16.1 2 -0.8 26 -0.6 29 0.1 2.4 0.6 2.4 1 2.4 16.1 l0 15.4 16.1 0 16.1 0 0 10.7 0 10.7 -16.1 0 -16.1 0 0 -10.7z"/>
  <path d="M1184.9 984.4 l0 -10.7 8 0 8 0 0 10.7 0 10.7 -8 0 -8 0 0 -10.7z"/>
  <path d="M825.4 972.9 c-0.4 -0.3 -0.8 -7.6 -0.8 -16.1 l0 -15.3 16.1 0 16.1 0 0 -32.2 0 -32.2 -16.1 0 -16.1 0 0 -16.1 0 -16.1 -16.6 0 -16.7 0 0.3 -15.8 0.3 -15.9 15.7 -0.3 15.7 -0.3 0.6 7.3 c0.4 4.1 0.8 11.3 0.8 16.2 l0 8.8 16.1 0 16.1 0 0 -16.1 0 -16.1 16.1 0 16.1 0 0 16.1 0 16.1 -16.1 0 -16.1 0 0 16.1 0 16.1 16.1 0 16.1 0 0 32.2 0 32.2 -16.1 0 -16.1 0 0 16.1 0 16.1 -15.3 0 c-8.5 0 -15.8 -0.3 -16.1 -0.8z"/>
  <path d="M1020.7 959.2 c-0.1 -7.9 -0.2 -15.1 -0.3 -15.8 -0.1 -1.6 16.7 -2.5 26 -1.4 l5.6 0.6 0 15.5 0 15.4 -15.5 0 -15.5 0 -0.1 -14.5z"/>
  <path d="M1151.7 958.2 l0 -15.3 5.7 -0.8 c3 -0.3 10.3 -0.6 16.1 -0.6 l10.4 0 0 16.1 0 16.1 -16.1 0 -16.1 0 0 -15.4z"/>
  <path d="M40 971.7 l-14.3 -0.3 0 -11.6 c0 -6.4 -0.3 -13.2 -0.6 -15 l-0.6 -3.3 16 0 16 0 0 15 c0 9.8 -0.3 15 -1.1 15.2 -0.6 0.2 -7.6 0.2 -15.3 0z"/>
  <path d="M318.5 957 l0 -15.5 16.1 0 16.1 0 0 15.5 0 15.5 -16.1 0 -16.1 0 0 -15.5z"/>
  <path d="M383.9 957 l0 -15.5 16.1 0 16.1 0 0 15.5 0 15.5 -16.1 0 -16.1 0 0 -15.5z"/>
  <path d="M516.5 963.8 c-0.4 -4.9 -0.8 -11.9 -0.8 -15.5 l0 -6.8 16 0 16 0 0.4 14.8 c0.2 8 0.2 15 0 15.5 -0.2 0.4 -7.2 0.8 -15.7 0.8 l-15.3 0 -0.6 -8.8z"/>
  <path d="M760.3 957 l0 -15.7 15.3 0.3 15.2 0.3 0.3 15.3 0.3 15.2 -15.7 0 -15.5 0 0 -15.5z"/>
  <path d="M890 957 l0 -15.7 15.9 0.3 15.8 0.3 0.3 15.3 0.3 15.2 -16.2 0 -16.1 0 0 -15.5z"/>
  <path d="M955.4 957 l0 -15.5 13.7 0 c20.2 0 18.4 -1.5 18.4 16.2 l0 14.9 -16.1 0 -16.1 0 0 -15.5z"/>
  <path d="M549.8 940.7 c-0.4 -0.3 -0.8 -7.6 -0.8 -16.1 l0 -15.3 16.1 0 16.1 0 0 16.1 0 16.1 -15.3 0 c-8.5 0 -15.8 -0.3 -16.1 -0.8z"/>
  <path d="M632.3 940.9 c-0.4 -0.4 -0.8 -7.7 -0.8 -16.1 l0 -15.4 -24.9 -0.2 -25 -0.3 -0.3 -15.8 -0.3 -15.9 -16 0 -16.1 0 0 -16.1 0 -16.1 26.3 0 26.3 0 0 16.1 0 16.1 15 0 15 0 0 -16.1 0 -16.1 16.1 0 16 0 0.3 15.9 0.3 15.8 15.9 0.3 15.8 0.3 0 16 0 16.1 15.5 0 15.5 0 0 16.1 0 16.1 -15.5 0 -15.5 0 0 -16.1 0 -16.1 -15.5 0 -15.4 0 -0.3 15.9 -0.3 15.8 -15.7 0.3 c-8.6 0.1 -15.9 -0.1 -16.3 -0.4z m32.5 -47.6 l0 -16.2 -16.3 0.3 -16.4 0.3 -0.3 14.4 c-0.1 7.9 0 15.1 0.2 15.9 0.4 1.1 4.5 1.4 16.7 1.4 l16.1 0 0 -16.1z"/>
  <path d="M792.1 940.7 c-0.4 -0.3 -0.8 -7.6 -0.8 -16.1 l0 -15.3 -15.5 0 -15.5 0 0 -16.1 0 -16.1 15.5 0 15.5 0 0 16.1 0 16.1 16.6 0 16.6 0 0 14.4 c0 7.9 -0.3 15.1 -0.6 16.1 -0.5 1.5 -3 1.7 -15.9 1.7 -8.5 0 -15.7 -0.3 -16 -0.8z"/>
  <path d="M922.2 909.3 l0 -32.2 -16.1 0 -16.1 0 0 -16.1 0 -16.1 16.1 0 16.1 0 0 16.1 0 16.1 16.1 0 16.1 0 0 32.2 0 32.2 -16.1 0 -16.1 0 0 -32.2z"/>
  <path d="M987.6 925.4 l0 -16.1 16.1 0 16 0 0.3 -15.8 0.3 -15.9 16.4 -0.3 16.3 -0.3 0 16.2 0 16.1 16.1 0 16.1 0 0 16.1 0 16.1 -16.1 0 -16.1 0 0 -16.1 0 -16.1 -16.6 0 -16.6 0 0 16.1 0 16.1 -16.1 0 -16.1 0 0 -16.1z"/>
  <path d="M1118.4 909.3 l0 -32.2 -16.6 0 -16.6 0 0 -16.1 0 -16.2 16.4 0.3 16.3 0.3 0.3 15.9 0.3 15.8 16 0 16.1 0 0 32.2 0 32.2 -16.1 0 -16.1 0 0 -32.2z"/>
  <path d="M0 924.3 l0 -16.1 11.8 0 11.8 0 0 16.1 0 16.1 -11.8 0 -11.8 0 0 -16.1z"/>
  <path d="M123.5 924.8 l0.3 -15.7 15.5 -0.2 15.5 -0.1 0.3 15.9 0.3 15.8 -16.2 0 -16.2 0 0.3 -15.7z"/>
  <path d="M253.1 924.9 l0 -15.5 16.1 0 16.1 0 0 15.5 0 15.5 -16.1 0 -16.1 0 0 -15.5z"/>
  <path d="M350.6 924.9 l0 -15.5 16 0 16.1 0 0.3 13.8 c0.2 7.5 0.2 14.6 0 15.5 -0.3 1.5 -2.5 1.7 -16.4 1.7 l-16 0 0 -15.5z"/>
  <path d="M519.3 908.6 l-3.5 -0.4 0 -15.5 0 -15.4 -16.1 0 -16.1 0 0 -16.1 0 -16.2 15.9 0.3 15.8 0.3 0.3 15.9 0.3 15.8 16 0 16 0 0.3 5.7 c0.2 3 0.2 10.3 0 16 l-0.3 10.3 -12.5 0 c-6.9 -0.1 -14.2 -0.3 -16 -0.5z"/>
  <path d="M90.1 892.7 l0 -15.5 16.1 0 16.1 0 0 15.5 0 15.5 -16.1 0 -16.1 0 0 -15.5z"/>
  <path d="M220.9 892.7 l0 -15.5 -16.1 0 -16.1 0 0 -16.1 0 -16.2 15.9 0.3 15.8 0.3 0.3 15.9 0.3 15.8 16 0 16.1 0 0 -16.1 0 -16.1 -16.1 0 -16.1 0 0 -32.7 0 -32.7 -16.1 0 -16.1 0 0 -16.1 0 -16.1 16.1 0 16.1 0 0 -15.5 0 -15.5 16.1 0 16.1 0 0 15.5 0 15.5 16.1 0 16.1 0 0 -15.5 0 -15.5 16.6 0 16.6 0 0 15.5 0 15.5 16.1 0 16.1 0 0 -15.5 0 -15.5 16.1 0 16.1 0 0 15.5 0 15.5 16.1 0 16.1 0 0 16.1 0 16.2 -15.8 -0.3 -15.9 -0.3 -0.3 -15.8 -0.3 -15.9 -16 0 -16.1 0 0 16.1 0 16.1 16.1 0 16.1 0 0 16.6 0 16.7 -15.8 -0.3 -15.9 -0.3 -0.3 -16.3 -0.3 -16.4 -16 0 -16.1 0 0 -16.1 0 -16.1 -16.6 0 -16.6 0 0 16.1 0 16.1 -16.1 0 -16.1 0 0 -16.1 0 -16.1 -16.1 0 -16.1 0 0 16.1 0 16 16.4 0.3 16.3 0.3 -0.3 32.5 -0.3 32.4 16.2 0 16.1 0 0 16.1 0 16.1 -16.1 0 -16.1 0 0 15.5 0 15.5 -16.1 0 -16.1 0 0 -15.5z"/>
  <path d="M286.3 892.7 l0 -15.5 16.1 0 16.1 0 0 15.5 0 15.5 -16.1 0 -16.1 0 0 -15.5z"/>
  <path d="M448.2 892.7 l0 -15.5 -16.1 0 -16.1 0 0 -16.1 0 -16.1 16.1 0 16.1 0 0 16.1 0 16.1 17.2 0 17.2 0 0 15.5 0 15.5 -17.2 0 -17.2 0 0 -15.5z"/>
  <path d="M57.9 861.6 l0 -15.5 6.3 0 c4.1 0 6.5 0.4 6.9 1.4 0.4 1.1 0.6 1.1 0.6 0 0.1 -1 2.6 -1.4 8.7 -1.4 l8.7 0 -0.5 3 c-0.2 1.6 -0.5 4.4 -0.6 6.1 l-0.3 3.2 -0.8 -3.8 c-0.8 -3.5 -0.8 -3.4 -1 1.6 0 3.4 0.2 4.8 0.9 3.9 1.1 -1.6 2.6 9.7 1.8 13.3 -0.3 1.2 -0.5 2.5 -0.5 3 -0.1 0.4 -6.9 0.8 -15.1 0.8 l-15 0 0 -15.5z"/>
  <path d="M123.1 862.8 c-0.2 -7.8 -0.2 -15.1 0 -16.1 0.3 -1.5 2.4 -1.7 15.9 -1.7 l15.4 0 0 16.1 0 16.1 -15.4 0 -15.5 0 -0.3 -14.4z"/>
  <path d="M350.6 861.1 l0 -16.1 -16.1 0 -16.1 0 0 -16.1 0 -16.2 15.9 0.3 15.8 0.3 0.3 15.9 0.3 15.8 16 0 16.1 0 0 16.1 0 16.1 -16.1 0 -16.1 0 0 -16.1z"/>
  <path d="M987.6 861.1 l0 -16.1 -16.6 0 -16.7 0 0.1 -16.3 c0.1 -9 0.1 -23.8 0 -32.7 l0 -16.4 -14.6 0 c-7.9 0 -15.3 0.4 -16.3 1 -1.7 0.9 -1.8 -0.3 -1.5 -16.1 l0.3 -17 -32.8 0 -32.7 0 0 16.1 0 16.1 -16.1 0 -16.1 0 0 -31.6 0 -31.6 16 0 c11.8 0 16.1 -0.3 16.4 -1.3 0.3 -0.8 0.3 -8 0 -16.1 l-0.5 -14.8 -15.9 0 -16 0 0 15.5 0 15.5 -16.6 0 -16.6 0 0 16.1 0 16.1 -15.4 0 -15.4 0 -0.8 -3.3 -0.8 -3.3 -2.6 2.5 c-3.2 3 -3.2 3.8 0.1 4.6 l2.7 0.6 0 15.5 0 15.5 -15.5 0 -15.5 0 0 -3.9 c0 -3.3 -0.2 -3.8 -1.6 -2.6 -1.4 1.2 -1.6 0.9 -1.6 -1.7 0 -4.4 23.7 -28.3 28.1 -28.3 2.6 0 3 -0.4 3 -3 0 -2.4 4.9 -7.8 28.2 -31 23.2 -23.2 28.7 -28.3 31.8 -28.8 3.8 -0.8 3.8 -0.8 1.8 1.4 -1.9 2.1 -1.9 2.3 1.6 1.9 3.1 -0.2 3.5 -0.6 3.9 -3.9 0.3 -3.1 0.2 -3.3 -1.3 -2.1 -1.5 1.3 -1.7 1.1 -1.7 -1.7 0 -2.6 2.3 -5.4 12.7 -15.7 10.2 -10.1 13.3 -12.5 15.8 -12.5 2.9 0 2.9 0.1 1.2 2 -1.7 1.9 -1.6 1.9 2.3 1.9 l4.1 -0.1 0.3 16.3 0.3 16.3 16 0 16 0 0.3 15.9 0.3 15.8 16.4 0.3 16.3 0.3 0 15.4 0 15.5 16.1 0 16.1 0 0 -15.5 0 -15.5 16.6 0 16.6 0 0 15.5 0 15.5 16.1 0 16.1 0 0 16.1 0 16.1 -16.1 0 -16.1 0 0 16.1 0 16.1 -2.9 0.1 -3 0.1 2.7 0.8 2.7 0.8 0.3 15.8 0.3 15.7 15.8 0.3 15.8 0.3 0.3 15.9 0.3 15.8 -16.2 0 -16.1 0 0 -16.1z m0 -97.6 l0 -16.1 -16.6 0 -16.6 0 0 16.1 0 16.1 16.6 0 16.6 0 0 -16.1z"/>
  <path d="M24.7 828.9 l0 -16.1 16.1 0 16.1 0 0 -16.6 0 -16.6 -16 0 -15.9 0 -0.6 -8.8 c-0.4 -4.9 -0.8 -12.1 -0.8 -16.1 l0 -7.3 -11.8 0 -11.8 0 0 -15.5 0 -15.5 11.8 0 11.8 0 0 15.5 0 15.5 16.6 0 16.6 0 0 16.1 0 16.1 16.1 0 16.1 0 0 16.6 0 16.6 -16.1 0 -16.1 0 0 16.1 0 16.1 -16.1 0 -16.1 0 0 -16.1z"/>
  <path d="M90.1 828.9 l0 -16.2 15.9 0.3 15.8 0.3 0.3 15.9 0.3 15.8 -16.2 0 -16.1 0 0 -16.1z"/>
  <path d="M155.5 812.3 l0 -32.8 16.2 0.3 16.2 0.3 0.1 15 c0.1 8.3 0.1 22.8 0 32.5 l-0.3 17.4 -16.1 0 -16.1 0 0 -32.7z"/>
  <path d="M728.1 828.9 l0 -16.1 15.5 0 15.5 0 0 16.1 0 16.1 -15.5 0 -15.5 0 0 -16.1z"/>
  <path d="M1118.4 828.9 l0 -16.1 16.1 0 16.1 0 0 16.1 0 16.1 -16.1 0 -16.1 0 0 -16.1z"/>
  <path d="M483.6 796.2 l0 -16.6 16.1 0 16.1 0 0 16.6 0 16.6 -16.1 0 -16.1 0 0 -16.6z"/>
  <path d="M549.1 808 c0.2 -2.4 -0.1 -4.9 -0.5 -5.7 -0.5 -0.9 0.2 -1.3 2.4 -1.3 4 0 8.8 4.9 8.8 9.1 0 2.4 -0.3 2.8 -1.3 1.8 -0.8 -0.8 -1.8 -0.9 -3 -0.2 -1 0.5 -2.9 0.9 -4.2 0.8 -2.1 -0.1 -2.4 -0.6 -2.1 -4.5z"/>
  <path d="M602.6 811.2 c0 -1.9 -1.3 -2 -3 -0.3 -1 1 -1.3 0.5 -1.3 -1.9 0 -2.6 1.8 -4.9 9.4 -12.5 9 -9 9.5 -9.3 14.3 -9.3 4.3 0 5.4 0.5 9.3 4.6 3.2 3.2 4.5 5.5 4.5 7.7 0 2.5 -0.3 2.8 -1.3 1.8 -2.4 -2.4 -3 -1.3 -3 5.1 l0 6.4 -14.5 0 c-12.1 0 -14.5 -0.2 -14.5 -1.6z"/>
  <path d="M696.7 812.1 c-0.4 -0.3 -0.8 -2.1 -0.8 -3.9 l0 -3.2 -2.7 2.5 -2.7 2.5 0 -3.5 c0 -3.2 1.6 -5.1 13.1 -16.8 10.9 -10.9 13.6 -13.2 16.3 -13.2 2.5 0 2.9 0.3 1.9 1.3 -2.1 2.1 -1.5 3 1.9 2.4 l3.2 -0.6 0 16.7 0 16.7 -14.8 0 c-8.1 0 -15.2 -0.3 -15.5 -0.8z"/>
  <path d="M760.3 796.2 l0 -16.6 15.5 0 15.5 0 0 16.6 0 16.6 -15.5 0 -15.5 0 0 -16.6z"/>
  <path d="M1031.4 812.1 l-10.5 -0.4 0 -15.4 0 -15.5 15.5 0 15.5 0 0 16.1 0 16.1 -5 -0.2 c-2.9 -0.1 -9.9 -0.4 -15.5 -0.5z"/>
  <path d="M1086.3 796.2 l0 -16.7 15.9 0.3 15.8 0.3 0.3 12.9 c0.2 7.1 0 14.5 -0.3 16.4 l-0.6 3.4 -15.4 0 -15.5 0 0 -16.6z"/>
  <path d="M526.2 780 c-0.4 -0.5 -2.7 -0.8 -4.9 -0.5 -3.9 0.2 -4.2 0 -4.6 -3.1 -0.3 -1.8 -0.1 -3.5 0.4 -3.9 0.5 -0.3 0.4 -1.3 -0.3 -2.1 -1 -1.2 -0.6 -1.5 1.9 -1.5 4.3 0 9.2 5.1 8.7 9.1 -0.2 1.6 -0.8 2.5 -1.2 2z"/>
  <path d="M122.2 763.5 l0 -16.1 -16.6 0 -16.6 0 0 -15.5 0 -15.5 16.6 0 16.6 0 0 15.5 0 15.5 16.1 0 16.1 0 0 16.1 0 16.1 -16.1 0 -16.1 0 0 -16.1z"/>
  <path d="M450.6 778.7 c-1.1 -0.3 -1.3 -3 -0.9 -11.3 0.4 -7 0.2 -10 -0.3 -8.3 -0.8 2.1 -1 1.3 -1.1 -4 l-0.1 -6.8 17.2 0 17.2 0 0 15.4 0 15.3 -15.2 0 c-8.5 0 -16 -0.2 -16.7 -0.5z"/>
  <path d="M1053 763.5 l0 -16.1 16.1 0 16.1 0 0 16.1 0 16.1 -16.1 0 -16.1 0 0 -16.1z"/>
  <path d="M494.9 748.6 c-0.5 -0.5 -3.2 -1.2 -5.9 -1.4 l-4.8 -0.3 -0.1 -4.4 c0 -2.4 -0.4 -4.9 -0.9 -5.6 -0.5 -0.9 0.2 -1.3 2.3 -1.3 4.4 0 11.4 7.2 10.8 11.2 -0.2 1.9 -0.6 2.6 -1.4 1.8z"/>
  <path d="M155.5 731.9 l0 -15.5 16.1 0 16.1 0 0 15.5 0 15.5 -16.1 0 -16.1 0 0 -15.5z"/>
  <path d="M416.1 731.9 l0 -15.5 15.5 0 15.5 0 0 15.5 0 15.5 -15.5 0 -15.5 0 0 -15.5z"/>
  <path d="M1021 738.6 c0.2 -4.6 0.6 -8.4 1.1 -8.4 1.2 0 2.1 -3.3 1.3 -4.6 -0.4 -0.8 -1.1 -0.2 -1.5 1.4 -0.5 1.8 -0.8 0.4 -0.9 -4 l-0.1 -6.8 15.5 0 15.5 0 0 15.3 0 15.3 -15.5 0 -15.7 0 0.2 -8.4z"/>
  <path d="M1086.3 731.9 l0 -15.5 16.1 0 16.1 0 0 15.5 0 15.5 -16.1 0 -16.1 0 0 -15.5z"/>
  <path d="M462.9 716.6 c-0.5 -0.9 -3.4 -1.4 -7.8 -1.4 l-7 0 0.2 -6.2 c0.1 -3.4 -0.1 -6.9 -0.5 -7.5 -0.5 -0.9 0.2 -1.3 2.3 -1.3 4.6 0 14.6 10.3 14 14.6 -0.2 2 -0.6 2.7 -1.2 1.8z"/>
  <path d="M25.4 715.6 c-1.7 -0.4 -1.8 -1.9 -1.6 -15.7 l0.3 -15.2 16.4 -0.3 16.3 -0.3 0 -15.4 0 -15.5 16.1 0 16.1 0 0 15.5 0 15.5 -16.1 0 -16 0 -0.3 15.9 -0.3 15.8 -14.5 0.1 c-7.9 0.1 -15.3 0 -16.4 -0.3z"/>
  <path d="M1002.9 715.5 l-15.3 -0.3 0 -15.4 0 -15.4 -16.3 -0.3 -16.4 -0.3 -0.3 -15.2 -0.3 -15.3 -16 0 -16.1 0 0 15.5 0 15.5 16.1 0 16.1 0 0 15.5 0 15.5 -16.1 0 -16.1 0 0 -15.5 0 -15.5 -16.1 0 -16.1 0 0 -15.5 0 -15.5 16.1 0 16.1 0 0 -16.1 0 -16.1 16.1 0 16.1 0 0 15.4 0 15.4 3.3 0.6 c1.8 0.3 9.3 0.6 16.6 0.6 l13.3 0 0 15.5 0 15.5 16.1 0 16.1 0 0 15.4 c0 8.6 -0.3 15.7 -0.8 15.9 -0.5 0.2 -7.7 0.2 -16.1 0z"/>
  <path d="M122.2 699.7 l0 -15.5 16.1 0 16.1 0 0 15.5 0 15.5 -16.1 0 -16.1 0 0 -15.5z"/>
  <path d="M188.5 700.1 c-0.2 -8.3 -0.1 -15.3 0.1 -15.5 0.2 -0.2 7.6 -0.4 16.4 -0.4 l15.9 0 0 -15.5 0 -15.5 16.1 0 16.1 0 0 15.5 0 15.5 -16.1 0 -16.1 0 0 15.5 0 15.5 -16 0 -16.1 0 -0.3 -15.1z"/>
  <path d="M254.1 701.9 c0 -7.3 -0.3 -14 -0.6 -15 -0.5 -1.5 1.2 -1.7 15.5 -1.7 l16.2 0 0 15 0 15 -15.5 0 -15.5 0 0 -13.3z"/>
  <path d="M318.5 699.7 l0 -15.5 15.5 0 15.5 0 0.2 9.4 c0.1 5.1 0.3 12.1 0.3 15.5 l0.2 6.1 -16 0 -15.9 0 0 -15.5z"/>
  <path d="M383.9 700.2 l0 -15 15.5 0 c9.3 0 15.5 0.4 15.5 1.1 0 0.5 -0.8 0.8 -1.7 0.3 -1.4 -0.5 -1.6 0.5 -1.4 7.3 0.3 11 1.4 12.7 2.1 3.1 0.5 -7.2 0.6 -6.6 0.8 5.1 l0.2 13.1 -15.5 0 -15.5 0 0 -15z"/>
  <path d="M1053 699.7 l0 -15.5 16.1 0 16.1 0 0 15.5 0 15.5 -16.1 0 -16.1 0 0 -15.5z"/>
  <path d="M1119.5 714.3 c0 -0.5 0.8 -1.7 1.6 -2.7 0.9 -0.9 1.6 -1.8 1.6 -2.1 0 -0.3 -0.8 -0.3 -1.6 0 -1.4 0.5 -1.6 -1.2 -1.6 -11.7 l0 -12.2 6.5 -0.8 c3.6 -0.3 10.7 -0.6 15.5 -0.6 l9 0 0 15.5 0 15.5 -15.5 0 c-8.9 0 -15.5 -0.4 -15.5 -1z"/>
  <path d="M1184.9 699.7 l0 -15.5 8 0 8 0 0 15.5 0 15.5 -8 0 -8 0 0 -15.5z"/>
  <path d="M155.5 668.6 l0 -15.5 16.1 0 16.1 0 0 15.5 0 15.5 -16.1 0 -16.1 0 0 -15.5z"/>
  <path d="M285.2 668.6 l0 -15.5 -8.8 0 c-4.9 0 -12.1 -0.3 -16.1 -0.8 l-7.3 -0.6 0 -15.3 0 -15.4 16.1 0 16.1 0 0 -16.1 0 -16.1 16.5 0 16.5 0 0.4 -8.3 c0.2 -4.6 -0.1 -9 -0.5 -9.7 -0.8 -1.1 -0.2 -1.4 1.9 -1.4 4.4 0 19.8 16.2 19.8 20.8 -0.1 3.2 -0.1 3.2 -1.7 1.2 -1.3 -1.8 -3.1 -2.3 -10.6 -2.6 l-9.1 -0.3 0 16.2 0 16.2 16.1 0 16.1 0 0 16.1 0 16.1 16.1 0 16.1 0 0 15.5 0 15.5 -16.1 0 -16.1 0 0 -15.5 0 -15.5 -16.1 0 -16.1 0 0 10.6 c0 5.8 -0.3 12.8 -0.6 15.5 l-0.8 4.9 -15.9 0 -16 0 0 -15.5z m33.2 -21.1 c0 -3.1 -0.3 -10.4 -0.8 -16.1 l-0.6 -10.5 -16 0 -15.9 0 0 15.3 c0 8.5 0.3 15.8 0.8 16.1 0.3 0.4 7.8 0.8 16.6 0.8 l15.9 0 0 -5.6z"/>
  <path d="M1021.7 683 c-2 -1.3 -0.4 -5.8 2.1 -6.1 1.7 -0.2 2.4 -1.1 2.4 -2.9 0 -1.9 0.4 -2.5 1.6 -2 0.9 0.4 1.6 1.4 1.6 2.3 0 1.4 0.3 1.4 2.7 -0.1 1.4 -1 3.5 -1.7 4.8 -1.7 2.7 0 2.8 -1.9 0.3 -3.8 -1.8 -1.3 -1.8 -1.5 -0.1 -3.4 1.7 -1.9 1.7 -2 -0.3 -3.3 -2.3 -1.4 -2.3 -1.4 0.2 -3.5 1.6 -1.4 1.9 -2 0.9 -2.1 -0.9 -0.1 -2.5 -0.3 -3.6 -0.4 -5.3 -0.8 -9.8 -0.8 -11.5 0 -1.4 0.5 -1.9 0.3 -1.9 -1 0 -1.5 1.9 -1.7 15.5 -1.7 l15.5 0 -0.1 7.3 c0 4.9 -0.3 6.5 -1 5 -1 -2.4 -1.1 -2.3 -1.5 1.6 -0.5 4.2 0.8 6.4 1.6 3.2 0.4 -1.6 0.8 0.5 0.9 5.7 l0.1 8.4 -14.6 -0.3 c-7.9 -0.2 -15 -0.6 -15.7 -1z"/>
  <path d="M1151.7 668.6 l0 -15.5 16.1 0 16.1 0 0 15.5 0 15.5 -16.1 0 -16.1 0 0 -15.5z"/>
  <path d="M416.7 675.8 c-0.4 -1.4 -0.5 -2.8 -0.2 -3.1 1.1 -1.2 1.9 0.4 1.5 3.1 l-0.4 2.5 -0.9 -2.5z"/>
  <path d="M418.2 671.8 l-2.5 -2.7 2.8 0 c2.4 0 2.9 0.5 2.9 2.7 0 1.5 -0.1 2.7 -0.3 2.7 -0.2 0 -1.5 -1.2 -2.9 -2.7z"/>
  <path d="M24.7 636.4 l0 -15.5 16.1 0 16.1 0 0 -16.1 0 -16.1 -28.4 0 -28.4 0 0 -47.6 0 -47.5 4 -0.8 c2.3 -0.3 7.6 -0.6 11.9 -0.6 l7.8 0 -0.3 -15.8 -0.3 -15.9 -11.5 -0.3 -11.6 -0.3 0 -16 0 -16.1 11.8 0 11.8 0 0 -16.1 0 -16.1 -11.8 0 -11.8 0 0 -16.1 0 -16.1 11.8 0 11.8 0 0 16.1 0 16.1 18.6 0.2 c10.1 0.2 22.8 0.3 28.3 0.3 5.4 0 10.2 0.3 10.6 0.9 0.4 0.4 1.3 0.8 1.9 0.8 0.6 0 0.4 -0.5 -0.4 -1.1 -1.2 -0.8 -0.8 -1.1 1.9 -1.1 2.8 0 3.4 0.4 3.5 2.5 0.2 3.1 0.5 24.1 0.8 45 l0.2 16.8 16.1 0 16.1 0 0 -16.1 0 -16.1 16.6 0 16.6 0 0 -16.1 0 -16.1 -16.1 0 -16.1 0 0 -11.2 c0 -6.1 -0.3 -13.3 -0.6 -16.1 l-0.8 -4.9 -15.9 0 -16 0 0 -16.1 0 -16.1 16.1 0 16.1 0 0 16.1 0 16.1 16.6 0 16.5 0 0.3 -15.8 0.3 -15.9 16.4 -0.3 16.3 -0.3 0 16.2 0 16.1 16.7 0 16.7 0 -0.3 -8.3 c-0.1 -4.6 -0.2 -11.9 -0.1 -16.1 l0.2 -7.8 16.1 0 16.1 0 0 16.1 0 16.1 16.1 0 16.1 0 0 -16 0 -16 16.1 -0.4 c8.8 -0.2 16.3 -0.6 16.5 -1 0.3 -0.3 0.3 -21.7 -0.1 -47.4 l-0.6 -46.9 -16 0 -15.9 0 0 -16.1 0 -16.1 -32.1 0 -32.2 0 -0.3 -15.5 -0.3 -15.5 32.5 0 32.4 0 0 -15.5 0 -15.5 -16.1 0 -16.1 0 0 -16.1 0 -16.1 16.1 0 16.1 0 0 -15.5 0 -15.5 32.2 0 32.2 0 0 -31.6 0 -31.6 16.1 0 16.1 0 0 15.5 0 15.5 15.5 0 15.5 0 0 16.1 0 16.1 -16.3 0 -16.2 0 0.6 23.4 c0.4 12.8 0.8 27 0.8 31.6 l0 8.3 16.1 0 16.1 0 0 -31.6 0 -31.6 16.2 0 16.2 0 -0.2 24.4 c-0.1 13.4 -0.1 27.6 -0.1 31.6 l0.1 7.2 16.1 0 16.1 0 0 15.5 0 15.5 16.1 0 16.1 0 0 11 c0 7.3 -0.4 11.6 -1.4 12.5 -0.6 0.9 0 0.4 1.7 -1 l2.9 -2.6 0 2.6 c0 1.6 -1.6 4.6 -3.9 7.2 -2.9 3.4 -4.6 4.5 -7.1 4.5 -2.8 0 -3.1 -0.2 -1.9 -1.6 1.2 -1.4 0.1 -1.6 -8.9 -1.6 -5.6 0 -10.9 0.3 -11.9 0.6 -1.4 0.5 -1.7 2.6 -1.7 11.6 l0 10.8 -15.3 15.3 c-8.4 8.4 -15.7 15.2 -16.1 15.2 -0.4 0 -0.8 -4.8 -0.8 -10.7 l0 -10.7 -16.1 0 -16.1 0 0 16.1 0 16.1 4.6 0 c3 0 4 0.3 3 1 -1.6 1.1 -2.5 6 -1.6 9 0.3 1 1 1.6 1.5 1.3 0.5 -0.3 1.1 0.1 1.4 0.8 0.3 0.8 -1.7 3.9 -4.5 6.8 -4.2 4.6 -4 4.4 1.8 -1.1 5.8 -5.6 6.6 -6 6.6 -3.9 0 1.5 -3 5.7 -8.3 11.5 -6.8 7.4 -8.7 9 -11.4 9 -2.7 0 -3 -0.2 -1.8 -1.6 1.2 -1.4 -0.2 -1.6 -11.2 -1.6 l-12.4 0 0 -31.6 0 -31.5 15.9 -0.3 15.8 -0.3 0.3 -15.2 c0.2 -14 0.1 -15.3 -1.6 -15.4 -1.2 0 -1.4 -0.3 -0.5 -0.6 1 -0.3 1.3 -4.6 1.3 -16 l0 -15.4 -15.5 0 -15.5 0 0 16.1 0 16 -15.8 0.3 -15.9 0.3 -0.1 61.1 c-0.1 33.7 -0.2 62 -0.3 63.1 -0.1 1.6 -1.6 1.8 -15.7 1.8 l-15.5 0 0 16.1 0 16.1 11.6 0.2 c6.3 0 12.1 0.1 12.9 0.1 0.6 -0.1 1.3 1 1.3 2.3 0 1.6 -3.9 6.4 -10.9 13.8 -9.1 9.7 -11.4 11.5 -14.2 11.5 -2 0 -2.8 -0.4 -2.1 -1 0.5 -0.6 0.9 -6.8 0.6 -13.9 l-0.3 -13 -16.1 0 -16 0 0 16.1 0 16.1 -16.1 0 -16.1 0 0 16 0 15.9 8.1 0.6 c4.5 0.4 10.2 0.4 12.7 0.1 l4.4 -0.6 -9.7 10 -9.7 10.1 11 -10.7 c9.4 -9.2 10.9 -10.3 10.9 -8 -0.1 1.9 -3.4 6.1 -11.7 14.8 -9.4 9.7 -12.2 12 -14.7 12 -1.9 0 -2.6 -0.4 -1.9 -1 0.5 -0.6 0.9 -6.8 0.6 -13.9 l-0.3 -13 -16.1 0 -16 0 0 -16.1 0 -16.1 -16.6 0 -16.6 0 0 16.1 0 16 -16.3 0.3 -16.4 0.3 -0.3 15.9 -0.3 15.8 -16 0 -16.1 0 0 16.1 c0 16 0 16.1 2.5 16.2 1.3 0.1 8.5 0.1 16.1 0.1 l13.6 -0.1 0 9.3 c0 5.1 0.3 12.5 0.8 16.6 l0.6 7.2 -16.8 0 -16.7 0 0 31.6 0 31.6 14.4 0 c7.9 0 15.1 0.3 16.1 0.6 1.5 0.5 1.7 3 1.7 16.1 l0 15.5 -15.8 -0.3 -15.9 -0.3 -0.3 -15.8 -0.3 -15.9 -11.2 -0.1 c-6.2 -0.1 -12 -0.1 -12.9 -0.1 -0.9 0 -3.3 0 -5.4 0.1 l-3.9 0.1 0.3 15.9 0.3 15.8 16.4 0.3 16.3 0.3 0 15.4 0 15.5 -16.1 0 -16.1 0 0 -13.1 c0 -19.7 1.6 -18 -17.3 -18 l-16 0 0 15.5 0 15.5 -16.1 0 -16.1 0 0 -15.5z m64.9 -48.8 c0.4 -0.6 0.3 -14.9 -0.1 -31.6 l-0.8 -30.6 -15.9 0 -16 0 0 -16.1 0 -16.1 -16.6 0 -16.6 0 0 31.6 0 31.6 16.6 0 16.6 0 0 16.1 0 16.1 16 0 c9.8 0 16.3 -0.4 16.7 -1.1z m32.7 -78.7 l0 -15.5 -5 -0.3 c-2.9 -0.2 -10.3 -0.2 -16.6 0 l-11.6 0.3 0 15.5 0 15.4 16.6 0 16.6 0 0 -15.4z m-33.2 -32.8 l0 -16.1 -12.8 0 c-7 0 -14.3 0.3 -16.1 0.6 l-3.3 0.8 0 15.3 0 15.4 16.1 0 16.1 0 0 -16.1z m-32.2 -31.5 l0 -15.5 -4.5 -0.6 c-2.6 -0.3 -9.9 -0.5 -16.4 -0.3 l-11.8 0.3 -0.3 15.9 -0.3 15.8 16.7 0 16.6 0 0 -15.4z m130.8 -65 l0 -16.1 -16.6 0 -16.6 0 0 16.1 0 16.1 16.6 0 16.6 0 0 -16.1z m65.4 0 l0 -16.1 -16.1 0 -16.1 0 0 16.1 0 16.1 16.1 0 16.1 0 0 -16.1z m96.5 -191.4 l0 -15.5 16.1 0 16.1 0 0 -12.2 c0 -6.6 -0.3 -13.7 -0.6 -15.5 l-0.6 -3.3 -15.4 0 -15.4 0 0 -16.5 c0 -16.4 0 -16.5 -2.4 -15.9 -1.4 0.3 -2 0.1 -1.6 -0.6 0.4 -0.5 2.8 -1.5 5.4 -1.9 l4.5 -0.9 -3.8 -0.8 -3.8 -0.6 4.4 -0.2 c3.5 -0.1 4.6 -0.6 5.6 -2.8 1.1 -2.4 1.6 -2.6 3.4 -1.6 2.7 1.4 3 -0.4 0.5 -2.9 -0.9 -0.9 -1.3 -2.1 -0.9 -2.8 0.5 -0.9 0.9 -0.9 1.2 0.1 0.8 2.3 2.1 1.4 1.6 -0.9 -0.3 -1.3 -0.2 -2.1 0.3 -2 2 0.3 6.2 -0.3 5 -0.9 -0.8 -0.2 -1.4 -1.5 -1.5 -2.8 0 -1.3 -0.3 -1.7 -0.6 -1 -0.2 0.6 -1 1.1 -1.5 0.8 -0.5 -0.4 -0.6 0.1 -0.3 1 0.4 1.2 0 1.7 -1.1 1.7 -1 0 -1.6 -0.5 -1.4 -1.3 0.1 -0.8 -0.9 -1.4 -2.1 -1.5 -1.4 -0.1 -2.5 0.3 -2.5 0.9 0 0.5 -0.8 0.3 -1.6 -0.5 -0.9 -1 -2 -1.8 -2.7 -2 -0.5 -0.1 -1.2 -1.6 -1.3 -3.2 -0.1 -1.7 -0.9 -3 -1.7 -3 -0.8 0 -1.1 0.5 -0.6 1.2 0.5 1 -0.8 1.1 -5 0.4 -9.4 -1.4 -21.2 -1.6 -22 -0.3 -0.5 0.8 -0.2 0.9 0.6 0.3 0.9 -0.5 1.2 -0.3 0.9 0.6 -0.9 2.6 -3.9 2.4 -4.4 -0.3 -0.2 -1.4 -0.5 0.8 -0.6 4.6 -0.1 5.7 0.3 7.4 1.8 8.6 1.5 1.2 1.6 1.2 0.5 -0.1 -1.8 -2 -1.8 -3.8 0 -2.3 0.9 0.6 1.8 0.9 2.3 0.4 1.1 -1.2 3.9 -1.3 3.9 -0.2 0 0.5 0.8 1 1.6 1 0.9 0 1.6 -0.6 1.6 -1.3 0 -1 0.4 -0.9 1.1 0.2 0.6 1.1 1.1 1.2 1.1 0.3 0 -0.8 0.8 -1.4 1.6 -1.4 0.9 0 1.6 1 1.6 2.1 0 1.4 0.8 2.1 2 2.1 1.2 0 2.5 0.5 2.8 1.2 1 1.5 -2.8 4.3 -5 3.8 -1.1 -0.2 -2.4 0.2 -3.1 1.1 -0.6 0.9 -2.5 1.4 -4.1 1.4 -2.5 -0.2 -2.6 -0.2 -0.3 -0.6 1.3 -0.2 2.4 -1 2.4 -1.5 0 -0.6 -0.4 -0.8 -1.1 -0.4 -0.5 0.3 -1.1 -0.3 -1.1 -1.6 l0 -2.3 -2.4 2.3 c-2.7 2.5 -3.6 2.7 -4.4 0.9 -0.3 -0.9 -0.6 -0.6 -0.6 0.5 -0.1 1.2 0.8 1.8 2.4 1.9 l2.4 0.2 -2.4 0.4 c-1.4 0.2 -2.5 1.3 -2.5 2.3 0 1.4 -0.2 1.5 -1 0.4 -0.8 -1.2 -1 -1.2 -1.5 0.2 -0.5 1.4 0.2 1.7 3.9 1.9 l4.5 0.1 -4.8 0.6 -4.8 0.6 -0.5 8 c-0.3 4.4 -0.4 11.8 -0.2 16.4 l0.4 8.3 16 0 16 0 0 15.5 0 15.5 -16.1 0 -16.1 0 0 15.5 0 15.5 16.1 0 16.1 0 0 -15.5z m128.7 0 l0 -15.5 -16.1 0 -16.1 0 0 15.5 0 15.5 16.1 0 16.1 0 0 -15.5z m-33.2 -31.1 l0 -15.5 -15.5 0 -15.5 0 0 15.5 0 15.5 15.5 0 15.5 0 0 -15.5z m-65.6 -64.2 c-0.3 -2.6 -2.4 -4.3 -6 -5.3 -3 -0.8 -2.7 1.2 0.4 2.9 2.7 1.5 3.8 3 3.1 4.6 -0.2 0.8 0.2 1.1 1.2 0.6 0.9 -0.3 1.5 -1.6 1.3 -2.9z"/>
  <path d="M1017.1 651 c0.3 -0.5 -0.4 -1.2 -1.6 -1.4 -1.5 -0.2 -1.8 -0.8 -1.2 -1.8 0.8 -1.2 1.4 -1 3.2 0.9 2.7 2.7 2.8 3.3 0.5 3.3 -0.9 0 -1.4 -0.4 -1 -1z"/>
  <path d="M1053 636.4 l0 -15.5 -16.1 0 -16.1 0 0 -16.1 0 -16.1 16.1 0 16 0 0.3 -15.8 0.3 -15.9 16.1 0 16.1 0 0.3 15.9 0.3 15.8 16 0 16.1 0 0 16.1 0 16.1 -16.1 0 -16.1 0 0 12.2 c0 6.6 -0.3 13.7 -0.6 15.5 l-0.6 3.3 -16 0 -16 0 0 -15.5z m33 -31.3 l-0.3 -15.9 -16.3 -0.3 -16.4 -0.3 0 16.2 0 16.1 16.6 0 16.7 0 -0.3 -15.8z"/>
  <path d="M1119.5 636.4 l0 -15.5 15.5 0 15.5 0 0 15.5 0 15.5 -15.5 0 -15.5 0 0 -15.5z"/>
  <path d="M1184.9 637.1 c0 -16.9 -0.4 -16.2 9.8 -16.2 l6.3 0 0 15.5 0 15.5 -8 0 -8 0 0 -14.9z"/>
  <path d="M1012.9 646.1 c0.4 -0.9 1.2 -1.6 1.9 -1.6 0.8 0 0.8 -0.3 -0.1 -0.9 -1.4 -0.9 -2 -5 -1.3 -7.3 0.2 -0.8 0.1 -1.2 -0.2 -1.1 -0.3 0 -1.4 -0.5 -2.4 -1.4 -1.6 -1.3 -1.8 -1.2 -1.8 0.3 0 1.1 -0.5 1.5 -1.1 1.2 -0.6 -0.4 -0.9 -1.2 -0.5 -1.7 0.4 -0.5 -0.1 -1 -1 -1 -0.9 0 -1.9 -1 -2.3 -2.1 -0.3 -1.2 -1.7 -2.7 -2.9 -3.3 -2 -1.1 -2.1 -1.3 -0.4 -2.3 1 -0.5 1.5 -1.4 1.2 -2 -0.4 -0.5 1.4 -1.1 4 -1.1 2.6 -0.1 6.5 -0.2 8.9 -0.3 l4.3 -0.1 0.1 5.8 c0.1 5.1 0 5.6 -1.3 3.9 -1.4 -1.8 -1.5 -1.7 -1.5 1.9 0 2.1 -0.4 4 -0.9 4 -0.5 0 -1 0.8 -1 1.6 0 0.9 0.4 1.6 1 1.6 1.7 0 0.8 4.9 -1.3 6.1 -1.7 1.2 -1.9 1.1 -1.5 -0.2z"/>
  <path d="M988.7 624.4 c0 -3 1 -3.5 4.1 -2.4 2 0.8 2.3 1.2 1.1 2.5 -1 1.1 -1.6 1.2 -2.1 0.2 -0.6 -0.9 -1.2 -0.8 -1.9 0.4 -0.9 1.3 -1.1 1.2 -1.1 -0.8z"/>
  <path d="M367.6 621.3 c-0.4 -0.4 -4.3 -0.9 -8.6 -0.9 l-7.8 -0.1 -0.3 -6.1 c-0.3 -6.8 0.5 -7.6 4.5 -4.4 1.3 1.1 0.9 0.3 -0.9 -1.6 l-3.2 -3.4 2.8 0 c1.7 0 4.8 1.9 8.8 5.7 5.3 4.7 6.1 6.1 5.8 8.6 -0.1 1.7 -0.6 2.8 -1.1 2.3z"/>
  <path d="M188.5 606 c-0.1 -8.3 -0.6 -15.3 -1.2 -15.8 -0.4 -0.4 -7.8 -1.1 -16.3 -1.3 l-15.5 -0.5 0 -15.9 0 -16 16.1 0 16 0 0.3 15.9 0.3 15.8 16.4 0.3 16.3 0.3 0 16 0 16.1 -16 0 -16 0 -0.4 -14.9z"/>
  <path d="M954.9 619.9 c-0.3 -0.5 -0.2 -7.8 0.1 -16.1 l0.8 -15.1 16 0 15.9 0 0 16.1 0 16.1 -16 0 c-8.9 0 -16.3 -0.4 -16.7 -1z"/>
  <path d="M1152.1 619.5 c-0.2 -0.8 -0.3 -7.9 -0.2 -15.9 l0.3 -14.4 16.4 -0.3 16.4 -0.3 -0.3 -15.8 -0.3 -15.8 -15.8 -0.3 -15.9 -0.3 -0.2 -4 c-0.1 -2.1 -0.3 -8.8 -0.3 -14.7 0 -5.9 -0.1 -18.3 -0.2 -27.6 l-0.3 -16.9 -16.1 0 c-12 0 -16.2 0.3 -16.3 1.4 -0.1 0.6 -0.2 7.6 -0.3 15.2 0 7.7 -0.1 21.2 -0.2 30.2 l-0.3 16.3 -15.4 -0.2 -15.4 -0.1 -0.9 -31.7 -1 -31.6 -15.8 -0.3 -15.8 -0.3 -0.3 -15.8 -0.3 -15.8 -16.3 -0.3 -16.4 -0.3 0 17.2 c0 16.5 -0.1 17.3 -2.6 19.8 -1.4 1.6 -3.3 2.8 -4.3 2.8 -1 0 -1.7 0.8 -1.7 1.7 0 0.9 -0.8 2.4 -1.6 3.2 -0.9 1 -1.6 1.3 -1.6 0.8 0 -0.5 -1 -1 -2 -1.1 -2.6 -0.2 -9.2 6.2 -7.5 7.3 0.8 0.4 0.3 1.5 -1.3 3 -1.3 1.2 -1.9 2.3 -1.2 2.3 0.6 0 1 0.8 0.6 1.6 -0.4 0.9 -1.5 1.6 -2.5 1.6 -1.4 0 -1.4 0.2 -0.2 1 1.2 0.8 1.1 1.1 -0.5 1.5 -1.1 0.2 2.6 0.5 8.1 0.6 10.2 0.2 19.4 1.1 20.3 1.8 0.2 0.2 -7.6 0.4 -17.5 0.4 -16.6 0 -17.9 -0.1 -17.4 -1.8 0.5 -1.8 1 -8.9 0.8 -12 -0.1 -1.2 -0.4 -1.2 -1.7 -0.1 -1.4 1.2 -1.6 0.9 -1.6 -1.7 0 -2.6 2 -5.1 10.2 -13.3 14.5 -14.4 15.1 -17 6.4 -26.8 -3.1 -3.5 -4.8 -6.4 -4.8 -8.3 0 -2.8 0 -2.8 2.4 -0.8 1.3 1.1 1.9 1.4 1.5 0.8 -0.6 -1.1 1.6 -1.4 9.4 -1.4 l10.2 0 0.3 -15.8 0.3 -15.9 16.4 -0.3 16.3 -0.3 0 -16 0 -16.1 -16.1 0 -16.1 0 0 -16.1 0 -16.1 16.1 0 16.1 0 0 -16.1 0 -16.1 16.1 0 16.1 0 0 16.1 0 16.1 16.6 0 16.7 0 -0.3 15.9 -0.3 15.8 -15.8 0.3 -15.9 0.3 0 -13.7 c0 -20.4 1.6 -18.6 -17.3 -18.6 l-16 0 0 16.1 0 16.1 16.1 0 16.1 0 0 16.1 0 16.1 16.6 0 16.6 0 0 16.1 0 16.1 16.6 0 16.6 0 0 -16.1 0 -16.1 16.1 0 16.1 0 0 16.1 0 16.1 8 0 8 0 0 16.6 0 16.6 -8 0 -8 0 0 15.5 0 15.5 8 0 8 0 0 32.2 0 32.2 -8 0 -7.9 0 -0.3 15.9 -0.3 15.8 -15.9 0.3 c-12.3 0.2 -16 0 -16.4 -1.2z m-33.1 -137.9 c0.4 -5.9 0.4 -13.2 0 -16.2 l-0.8 -5.5 -15.7 0.3 -15.8 0.3 -0.3 15.9 -0.3 15.8 16.1 0 16 0 0.8 -10.6z m65.9 -4.9 c0 -18.3 1.7 -16.8 -18.2 -16.4 l-13.4 0.3 -0.3 15.9 -0.3 15.8 16.2 0 16.1 0 0 -15.5z m-98.7 -32.7 l0 -16.1 -16.1 0 -16.1 0 0 16.1 0 16.1 16.1 0 16.1 0 0 -16.1z"/>
  <path d="M988.3 587.8 c-0.2 -0.4 -0.5 -7.4 -0.5 -15.5 l-0.2 -14.7 10 -0.1 c10.5 -0.2 18.8 -0.1 21 0 1 0.1 1.3 4 1.3 15.7 l0 15.5 -15.4 0 c-8.6 0 -15.8 -0.3 -16.1 -0.9z"/>
  <path d="M1119.5 572.6 l0 -16.2 15.9 0.3 15.8 0.3 0.3 15.9 0.3 15.8 -16.2 0 -16.1 0 0 -16.1z"/>
  <path d="M939.4 556.2 c0 -3.2 0.9 -4.5 5.6 -8.7 6.9 -6 10.1 -6.4 10.3 -1.4 0 1.8 -0.1 5 -0.4 7 -0.5 3.3 -0.6 3.4 -6 3.4 -3.6 0 -6.2 0.6 -7.5 1.8 -1.8 1.6 -1.9 1.5 -1.9 -2.1z"/>
  <path d="M305.3 557.8 c-0.5 -0.8 -2 -1.3 -3.2 -1.2 -1.3 0 -5.5 0.1 -9.3 0 -6.9 -0.1 -7 -0.2 -7.2 -3 -0.3 -6 0.9 -12.2 2.1 -11.4 0.8 0.3 0.3 -0.4 -0.9 -1.8 l-2.1 -2.5 4.1 0.6 c5.9 1 18.2 13.1 17.7 17.5 -0.2 2.1 -0.6 2.7 -1.2 1.7z"/>
  <path d="M220 540.8 l0.3 -15.9 16.3 -0.3 16.2 -0.3 0.4 -8.6 c0.2 -4.7 -0.1 -9 -0.8 -9.7 -0.5 -0.5 0.2 -1 2.4 -1 2.7 0 4.8 1.4 10.4 6.9 5.8 5.7 7.1 7.6 7.1 10.4 0 2.9 -0.2 3.2 -1.6 2 -1.3 -1.1 -1.6 -1.1 -1.6 0 0 1 -1.1 1.2 -3.2 0.6 -1.8 -0.3 -5.5 -0.3 -8 0.1 l-4.8 0.6 0 15.3 0 15.4 -16.6 0 -16.7 0 0.3 -15.8z"/>
  <path d="M974.4 442 c-7.4 -7.4 -9.3 -10 -9.3 -12.4 0 -2.3 0.3 -2.8 1.4 -2 0.6 0.5 5.9 0.6 11.5 0.3 l10.2 -0.5 0.3 -15.8 0.3 -15.9 -16.6 0 -16.6 0 -0.3 10.3 c-0.2 5.6 0.1 10.6 0.8 11.3 0.5 0.5 -0.2 1 -2.3 1 -4.6 0 -21.9 -17.4 -21.9 -22 0 -2.4 0.3 -2.8 1.3 -1.8 0.9 0.9 5 1.3 11.8 1.3 l10.5 0 0 -16.1 0 -16.1 -16.5 0 -16.6 0 -0.3 9.2 c-0.2 5 0.1 9.9 0.5 10.7 0.6 1.2 0.1 1.5 -2.1 1.5 -4.4 0 -19.6 -15.3 -19.6 -19.7 0 -2.3 0.3 -2.8 1.4 -2.1 0.6 0.5 5.5 0.9 10.7 0.6 l9.3 -0.3 0 -16.1 0 -16 -16.1 0 -16.1 0 0 -32.3 c0 -29.9 0.1 -32.3 1.8 -31.6 1 0.4 8.3 0.4 16.1 0 l14.3 -0.8 0 -15.3 0 -15.4 -16 0 c-13.6 0 -16.1 0.2 -16.6 1.7 -0.3 1 -0.6 7.9 -0.6 15.5 l0 13.8 -15.4 0 -15.3 0 -0.8 -6.5 c-0.4 -3.6 -0.6 -10.5 -0.5 -15.2 l0.2 -8.8 16.2 -0.5 16.2 -0.5 0.3 -15.8 0.3 -15.9 16 0 16.1 0 0 16.1 0 16.1 16.6 0 16.6 0 0 -31.6 0 -31.5 -16.3 -0.3 -16.4 -0.3 -0.3 -15.2 -0.3 -15.3 16.2 0 16.1 0 0 -16.1 0 -16.1 -15.8 0.1 c-8.8 0.1 -18.6 0.4 -21.8 0.9 -5.1 0.6 -5.5 0.8 -2.9 1.5 2.5 0.6 2.7 1.1 1.6 2.3 -1.2 1.3 -1.6 1.3 -3.2 -0.1 -1.2 -1.1 -1.9 -1.2 -2.5 -0.3 -0.3 0.5 -1 0.9 -1.4 0.6 -0.4 -0.2 -1.4 0.2 -2 1.1 -0.9 0.9 -1 1.6 -0.3 2 1.7 1.1 0.1 2.7 -2.5 2.6 -1.3 0 -1.7 -0.3 -1 -0.6 0.6 -0.2 1.3 -1.5 1.2 -2.8 0 -1.3 -0.3 -1.8 -0.5 -1.1 -1 2.1 -3.4 0.3 -2.9 -1.9 0.4 -1.5 0.9 -1.8 1.4 -1 0.5 0.9 1 0.8 1.4 -0.4 0.5 -1.5 -0.3 -1.7 -5.5 -1.6 -4.7 0.1 -5.5 0.3 -3.4 1 1.5 0.4 2 0.9 1.4 1 -0.8 0.1 -1.4 0.6 -1.4 1.3 0 0.5 0.5 0.8 1.1 0.4 1 -0.6 1.6 1.7 1.2 4.2 -0.1 0.5 0.5 0.3 1.5 -0.4 2 -1.7 2.5 -1.3 3.3 3.2 0.8 3.2 0.5 3.5 -1.5 3 -1.3 -0.4 -2.1 -0.2 -1.7 0.3 0.9 1.5 6.6 1.2 7.2 -0.3 0.4 -1 0.9 -1 1.5 -0.3 0.4 0.6 2.3 1.8 3.9 2.7 2.5 1.3 3.2 1.3 4 0.1 0.4 -0.9 1.4 -1.1 2 -0.6 1 0.5 1 1.2 -0.1 2.5 -1.2 1.4 -1.2 1.5 0.1 0.9 1.1 -0.8 1.2 -0.3 0.6 1.6 -0.8 2.3 -0.6 2.4 1 1.1 1.5 -1.3 1.7 -1.2 1.7 0.8 0 1.2 -0.3 3 -0.8 4.1 -0.6 1.7 -0.8 1.7 -1.5 -0.2 -0.8 -1.8 -0.9 -1.7 -0.9 0.6 -0.1 2.1 -0.3 2.4 -1.2 1.1 -0.8 -1.1 -1.1 -1.2 -1.1 -0.2 0 0.9 -1.3 1.2 -3.4 1.1 -4.1 -0.3 -8.7 -2.4 -7.6 -3.3 0.3 -0.4 -0.3 -0.8 -1.6 -0.8 -1.5 0 -2.1 0.5 -1.7 1.5 0.4 1.2 0 1.4 -1.7 1 -1.7 -0.4 -1.9 -0.9 -0.9 -1.5 1 -0.6 0.4 -1 -1.6 -1 -1.7 0 -2.8 0.4 -2.5 1 0.9 1.4 -0.4 4.5 -1.5 3.9 -0.5 -0.3 -1.2 -0.1 -1.6 0.5 -0.4 0.6 -7.2 1.1 -17.3 1.1 l-16.5 0 0 -15.5 0 -15.5 -16.1 0 -16.1 0 0 -16.1 0 -16.1 16.1 0 16.1 0 0 -16.1 0 -16 -15.8 -0.3 -15.8 -0.3 0.3 -10.9 c0.1 -6.1 -0.1 -13.2 -0.4 -15.9 l-0.8 -4.8 -16 0 -16 0 0 -7 0 -7 32.7 0 32.7 0 0 7.3 c0.1 4 0.1 14.3 0 23.1 l-0.1 15.8 16.2 0 16.1 0 0 16.1 0 16.1 32.5 -0.2 32.4 -0.3 0.3 -15.9 0.3 -15.8 33.7 0 33.8 0 0.2 -22.7 0.3 -22.8 16.4 -0.3 16.3 -0.3 0 23.2 0 23.1 16.1 0 16.1 0 0 -16.1 0 -16.1 16.6 0 16.6 0 0 16.1 0 16 15.9 0.3 15.8 0.3 0 15.5 0 15.5 -15.7 0.3 -15.7 0.3 -0.9 30.5 c-0.4 16.7 -0.4 30.9 0 31.5 0.4 0.8 6.3 1.2 16.2 1.2 l15.4 0 0 -16.1 0 -16.1 16.5 0 16.4 0 0.5 15.3 c0.3 8.4 0.3 15.5 0.1 16.1 -0.2 0.4 -7.6 0.8 -16.5 0.8 l-16 0 0 15.5 0 15.5 15.5 0 15.5 0 -0.2 15.5 -0.1 15.5 -15.4 0 -15.3 0 0 16.1 0 16.1 -16.6 0 -16.5 0 -0.6 3.6 c-0.4 1.9 -0.5 8.9 -0.3 15.5 l0.3 11.9 -32.4 0 -32.5 0 0 -15.4 0 -15.3 32 -0.9 32.1 -0.8 -0.1 -14.7 -0.1 -14.6 -2.7 -0.1 c-1.5 -0.1 -15.9 -0.5 -31.8 -1 -23.6 -0.6 -29.3 -1.1 -29.3 -2.3 0 -0.9 0.8 -1.5 1.6 -1.5 0.9 0 1.6 -0.5 1.6 -1.3 0 -0.6 1 -0.1 2.1 1.3 1.2 1.4 2.1 1.9 2.1 1.3 0 -0.8 0.5 -1.3 1.2 -1.3 0.5 0 0.8 0.5 0.4 1.1 -1.1 1.7 3 1.2 5.4 -0.8 2.1 -1.6 2.1 -1.6 -0.2 -1.1 -2.6 0.5 -3.4 -0.9 -1.1 -1.7 0.6 -0.3 -0.3 -0.6 -2.1 -0.6 -1.9 -0.1 -3.5 -0.4 -3.6 -0.9 0 -0.5 -0.2 -2 -0.5 -3.4 -0.3 -1.7 0.2 -3 1.7 -4.1 2.5 -1.7 2 -2.9 -1.3 -4.7 -1.8 -1 -2.1 -1 -1.6 0.4 0.6 1.6 -2.8 6.1 -4.6 6.1 -0.6 0 -1.1 -0.8 -1.1 -1.7 0 -1 0.5 -1.3 1.4 -0.9 0.9 0.6 0.9 0.3 -0.1 -1 -0.9 -1 -1.4 -3.3 -1.3 -5.3 0.1 -1.9 0.2 -4.8 0.1 -6.5 l-0.1 -3 -16.3 0.3 -16.4 0.3 -0.3 15.3 -0.3 15.2 -16.5 0 -16.6 0 0 16.1 0 16.1 16.6 0 16.6 0 0 -15.5 0 -15.5 16.1 0 16.1 0 0 15.5 0 15.5 -16.1 0 -16.1 0 0 15.5 0 15.5 16.1 0 16.1 0 0 16.1 0 16.1 -16.1 0 -16 0 -0.3 -15.8 -0.3 -15.9 -16 -0.3 c-12.1 -0.2 -16.2 0.1 -16.9 1.1 -0.4 0.8 -0.9 8 -0.9 16.2 l0 14.7 -16.1 0 -16.1 0 0 32.2 0 32.2 16.6 0 16.6 0 0 16.1 0 16.1 16.1 0 16.1 0 0 16.1 0 16.1 -16 0 -16.1 0 -0.3 10.8 c-0.2 5.9 0.1 11.2 0.8 11.8 0.5 0.5 -0.2 1 -2.3 1 -2.6 0 -4.9 -1.8 -12.5 -9.4z m-20.1 -158.4 l0 -15.5 -15.5 0 -15.5 0 0 15.5 0 15.5 15.5 0 15.5 0 0 -15.5z m33.3 -27 c0.1 -5.8 0.2 -11.9 0.4 -13.6 0.5 -7.2 0.9 -7.1 -16.7 -7.1 l-16 0 0 15.5 0 15.5 16.1 0 16.1 0 0.1 -10.4z m166.3 -54.6 c0.2 -1 0.1 -7.8 -0.2 -15.3 l-0.5 -13.5 -16.1 0 -16.1 0 -0.3 15.3 -0.3 15.2 16.6 0 c14.4 0 16.6 -0.2 16.9 -1.7z m13.1 -2.7 c-1.1 -0.4 -1.4 -0.9 -0.5 -0.9 0.9 -0.1 0.4 -0.9 -1.1 -2.1 -2.8 -2.3 -4.2 -1.1 -2 1.5 1.1 1.3 1 1.6 -0.6 1.7 -1.5 0.1 -1.3 0.3 0.6 0.9 3.4 1.1 6.6 0.1 3.6 -1.1z m15.9 -7.6 c0.2 -2.1 0 -3.6 -0.4 -3.4 -0.4 0.3 -0.9 2.6 -0.8 5 0.1 5 0.6 4.4 1.2 -1.6z m-120 -12.3 c-0.3 -0.8 -1 -1.4 -1.5 -1.4 -0.5 0 -1 -0.8 -1 -1.6 0 -0.9 -0.8 -1.6 -1.6 -1.6 -0.9 0 -1.6 -0.4 -1.6 -1.1 0 -0.6 4.6 -1.1 11.8 -1.1 8.7 0 11.8 0.3 11.8 1.4 0 1 0.2 1 1 -0.1 0.4 -0.9 1.2 -1.4 1.6 -1.4 0.3 0.1 8.9 0.1 18.9 0.1 l18.2 0 0 -14.2 c0 -7.8 -0.4 -14.9 -0.9 -15.7 -0.8 -1 -7.9 -1.3 -32.5 -1.1 l-31.5 0.3 0 15.5 c0 8.6 0.3 17.3 0.9 19.4 0.6 3.3 1.2 3.8 3.9 3.8 2.1 0 2.9 -0.4 2.6 -1.4z m8.3 -2.6 c0 -1.2 -4.4 -1.2 -6.3 0 -0.8 0.5 -1.2 1.4 -0.8 2 0.9 1.4 7.1 -0.4 7.1 -2z m9 1.6 c2.9 -1.1 0.8 -2.6 -3.8 -2.6 -2.5 0 -4.1 0.4 -3.6 1.1 0.3 0.5 1.3 0.8 2 0.4 0.9 -0.3 1.8 -0.1 2.3 0.5 0.8 1.4 0.9 1.4 3.1 0.5z m-58.3 -21.3 l0 -15.5 -33.2 0 -33.2 0 0 15.5 0 15.5 33.2 0 33.2 0 0 -15.5z m-131.9 -63.3 l0 -15.5 -16 0 c-18.1 0 -17.3 -0.4 -16.8 9.7 0.1 2.7 0.3 8.6 0.4 13.2 l0.2 8.3 16.1 0 16.1 0 0 -15.5z m133 0 l0 -15.5 -33.8 0 -33.8 0 0 15.5 0 15.5 33.8 0 33.8 0 0 -15.5z m65.4 0 l0 -15.5 14.4 0 c7.9 0 15.1 -0.3 16.1 -0.6 1.5 -0.5 1.7 -3 1.7 -15.4 0 -12.4 -0.2 -14.9 -1.7 -15.4 -1 -0.3 -8.1 -0.6 -16.1 -0.6 l-14.4 0 0 16.1 0 16.1 -16.1 0 -16.1 0 0 15.5 0 15.5 16.1 0 16.1 0 0 -15.5z m-35.6 -16.2 c2.4 -0.6 2.4 -1 2.4 -16.1 l0 -15.4 -16.1 0 -16.1 0 0 15.4 c0 11.4 0.3 15.7 1.4 16 1.8 0.9 25.5 0.9 28.4 0.1z"/>
  <path d="M24.3 362.9 c-0.4 -0.4 -0.8 -7.7 -0.8 -16.2 l0 -15.3 -11.8 0 -11.8 0 0 -31.5 0 -31.5 9.5 -0.8 c15.4 -1.2 13.9 -4.5 14.3 32 l0.3 31.3 16.4 0.3 16.4 0.3 -0.3 15.8 -0.3 15.8 -15.7 0.3 c-8.6 0.1 -15.9 -0.1 -16.3 -0.4z"/>
  <path d="M1120.5 350.4 c-0.1 -7.3 -0.2 -14.4 -0.3 -15.9 l-0.1 -2.7 16.4 -0.3 16.3 -0.3 0 -16 0 -16.1 16.6 0 16.6 0 0 16.1 0 16.1 7.5 0 7.5 0 0 16.1 0 16.1 -8 0 -8 0 0 -16.1 0 -16.1 -16.1 0 -16.1 0 -0.1 11 c-0.1 9.7 -0.3 15.1 -0.9 19.8 -0.1 1 -4 1.3 -15.7 1.3 l-15.5 0 -0.1 -13.1z"/>
  <path d="M362.4 343.7 c11.3 -11.4 13.5 -13.1 13.7 -11.2 0.5 3.3 -20.6 24.6 -24.4 24.6 -2.3 0 -0.8 -1.9 10.7 -13.4z"/>
  <path d="M350.6 342.8 l0 -11.5 11.3 0 c6.2 0 11.3 0.1 11.3 0.3 0 0.1 -5 5.3 -11.3 11.5 l-11.3 11.3 0 -11.6z"/>
  <path d="M1087.3 315.3 l0 -16.1 16.1 0 16.1 0 0 16.1 0 16.1 -16.1 0 -16.1 0 0 -16.1z"/>
  <path d="M123.6 328.7 c-1.5 -1.6 -2 -25.4 -0.5 -24.9 0.4 0.1 0.8 -0.2 0.8 -0.9 0 -0.5 -0.3 -1 -0.8 -0.8 -0.5 0.1 -0.9 -0.2 -0.9 -0.9 0 -0.6 6.1 -1.1 16.1 -1.1 l16.1 0 0 15 0 15 -14.7 0 c-11.4 -0.1 -15.1 -0.4 -16.1 -1.6z"/>
  <path d="M827.9 295 c-4 -4.5 -6.5 -8.4 -6.5 -9.9 0 -2.3 0.4 -2 5 2.3 3.3 3.2 4 3.5 1.6 1.1 -3.3 -3.6 -3.4 -4.2 -3.4 -12.7 l0 -8.8 16.1 0 16.1 0 0 16.1 0 16.1 -9.2 0 c-8.1 0 -9.1 0.2 -7.9 1.6 1.2 1.4 0.9 1.6 -1.9 1.6 -2.7 0 -4.4 -1.3 -9.8 -7.4z"/>
  <path d="M56.8 284.8 c0 -7.9 -0.3 -15.1 -0.6 -16.1 -0.5 -1.5 -3 -1.7 -16.6 -1.7 l-16 0 0 -15.5 0 -15.5 16.7 0 16.6 0 -0.3 -16.1 -0.3 -16.1 32.7 0 c18 -0.1 40.1 -0.1 49.1 0 l16.3 0.1 0 -15.7 0 -15.5 16.6 0 16.6 0 0 15.5 0 15.4 -16.3 0.3 -16.4 0.3 -0.3 15.9 -0.3 15.8 16.7 0 16.6 0 0 31.6 0 31.6 -16.6 0 -16.6 0 0 -16.1 0 -16.1 -16.6 0 c-12.8 0 -16.6 -0.3 -16.5 -1.3 0.1 -0.8 0.1 -7.8 0 -15.5 l-0.1 -14.3 -32.2 0 -32.2 0 0 15.5 0 15.5 16.1 0 16.1 0 0 16.1 0 16.1 -16.1 0 -16.1 0 0 -14.4z"/>
  <path d="M253.1 283.1 l0 -16.1 16.1 0 16.1 0 0 16.1 0 16.1 -16.1 0 -16.1 0 0 -16.1z"/>
  <path d="M1185.5 251.5 l0 -15.5 7.7 0 7.8 0 0 15.5 0 15.5 -7.7 0 -7.8 0 0 -15.5z"/>
  <path d="M463.2 242.9 c14.7 -14.8 17.8 -17.4 18 -15.4 0.5 3.4 -29.2 33.1 -33 33.1 -2.3 0 0.1 -2.8 15 -17.7z"/>
  <path d="M791.6 220.1 l0.3 -15.9 16.1 0 16.1 0 0.3 15.9 0.3 15.8 -16.7 0 -16.7 0 0.3 -15.8z"/>
  <path d="M733.3 200.1 c-5.4 -5.8 -7.3 -8.7 -7.3 -10.8 0 -2.5 0.2 -2.8 1.6 -1.6 1.4 1.2 1.6 0.3 1.6 -6.9 l0 -8.1 15.5 0 15.5 0 0 -15.5 0 -15.5 -15.5 0 -15.5 0 0 -16.1 0 -16.1 15.5 0 15.5 0 0 -15.5 0 -15.4 -15.2 -0.3 -15.3 -0.3 -0.3 -15.8 -0.3 -15.9 15.7 0 15.5 0 0 16.1 0 16.1 15.5 0 15.5 0 0 15.5 0 15.5 -15.5 0 -15.5 0 0 16.1 0 16.1 16.1 0 16.1 0 0 15.5 0 15.5 -16.1 0 -16.1 0 0 15.5 0 15.5 -7.3 0 c-7.9 0 -9.4 0.5 -7.6 2.9 1 1.1 0.6 1.4 -1.8 1.3 -2.5 0 -4.7 -1.8 -10.3 -7.8z"/>
  <path d="M0 188.2 l0 -15.5 11.8 0 11.8 0 0 15.5 0 15.5 -11.8 0 -11.8 0 0 -15.5z"/>
  <path d="M824.6 188.2 l0 -15.5 16.1 0 16.1 0 0 15.5 0 15.5 -16.1 0 -16.1 0 0 -15.5z"/>
  <path d="M89 157.1 l0 -15.4 -16.3 -0.3 -16.4 -0.3 -0.3 -15.2 -0.3 -15.3 -14.3 0 c-7.9 0 -15.1 -0.3 -16.1 -0.6 -1.5 -0.5 -1.7 -3 -1.7 -16.1 l0 -15.4 16.6 0 16.7 0 -0.3 -15.8 -0.3 -15.9 -16.3 -0.3 -16.4 -0.3 0 -15.4 c0 -8.5 0.3 -15.5 0.9 -15.8 0.4 -0.2 7.8 -0.2 16.6 0 l15.8 0.3 0 15.5 0 15.4 16.1 0 16.1 0 0 -15.5 0 -15.5 16.1 0 16.1 0 0 15.5 0 15.5 -16.1 0 -16.1 0 0 16.1 0 16.1 16.1 0 16.1 0 0 15.5 0 15.5 16.6 0 16.6 0 0 16.1 0 16.1 -16.6 0 -16.6 0 0 15.5 0 15.5 -16.1 0 -16.1 0 0 -15.5z m32.2 -31.6 l0 -16.1 -16.1 0 -16.1 0 0 -15.5 0 -15.5 -16.1 0 -16.1 0 0 15.5 0 15.5 16.1 0 16.1 0 0 16.1 0 16.1 16.1 0 16.1 0 0 -16.1z"/>
  <path d="M591.2 143.2 c-7.5 -6.6 -10.2 -7.5 -15.1 -4.9 -2.1 1.1 -4.9 3 -6 4.3 -2.5 2.7 -9.3 3.3 -7.1 0.6 1.6 -1.9 1.9 -1.8 -10.4 -1.6 l-10 0.2 0 -16.2 0 -16.2 16.1 0 16.1 0 0 -15.5 0 -15.5 -16.1 0 -16.1 0 0 -16.1 0 -16.1 -16.1 0 -16.1 0 0 16.1 0 16.1 -16.1 0 -16.1 0 0 -16.1 0 -16.1 16.1 0 16.2 0 -0.3 -15.8 -0.3 -15.9 -2.7 -0.2 c-1.5 0 -8.6 -0.1 -15.8 -0.2 l-13.2 -0.1 0 -7 0 -7 16.1 0 16 0 0.3 7.3 0.3 7.2 15.9 0.3 15.8 0.3 0 15.4 0 15.5 16.1 0 16.1 0 0 16.1 0 16.1 13.4 0 13.5 0 -0.1 33.8 c-0.1 18.6 0.2 34.3 0.5 34.9 0.4 0.6 -0.6 1.1 -2.4 1.1 -2 0 -4.8 -1.5 -8.6 -4.8z"/>
  <path d="M674.4 141.4 c-2.5 -2 -5.7 -3.5 -8.4 -3.9 -2.7 -0.4 -4.4 -1.2 -4.4 -2 0 -0.9 0.8 -1.5 1.6 -1.5 1.4 0 1.6 -3.9 1.6 -27.9 l0 -27.9 -31.1 0 -31.1 0 0 -16.1 0 -16.1 31.1 0 31.2 0 -0.3 -15.8 -0.3 -15.9 -16.3 -0.3 -16.4 -0.3 0 -6.9 0 -7 16.6 0 16.6 0 0 7 0 7 16.1 0 16.1 0 0 16.1 0 16.1 -16.1 0 -16.1 0 0 16.1 0 16.1 16.1 0 16.1 0 0 31.6 0 31.6 -7.6 0 c-6.6 0 -7.5 0.2 -6.3 1.6 2.6 3.1 -4.5 1.7 -8.7 -1.7z"/>
  <path d="M478.7 140.2 c-0.2 -0.8 -0.3 -7.9 -0.2 -15.9 l0.3 -14.4 15.9 -0.3 15.8 -0.2 0 16.1 0 16.1 -15.5 0 c-11.8 0 -15.8 -0.3 -16.2 -1.4z"/>
  <path d="M187.7 78.3 l0 -32.2 -16.1 0 -16.1 0 0 -15.5 0 -15.5 16.1 0 16.1 0 0 15.5 0 15.5 32.2 0 32.2 0 0 -15.5 0 -15.5 -16.1 0 -16.1 0 0 -7.5 0 -7.5 16.6 0 16.6 0 0 7 0 7 16.1 0 16.1 0 0 -7 0 -7 16.1 0 16.1 0 0 7.5 0 7.5 -16.1 0 -16.1 0 0 15.5 0 15.5 -16 0 c-13.6 0 -16.1 0.2 -16.6 1.7 -0.3 1 -0.6 8.1 -0.6 16.1 l0 14.4 -15.5 0 -15.4 0 -0.3 15.9 -0.3 15.8 -16.3 0.3 -16.4 0.3 0 -32.3z"/>
  <path d="M511.6 95 c0.1 -8.1 0.4 -12 1 -10.3 0.4 1.5 0.9 2 1 1.3 0.2 -3.1 3.3 1.8 3.3 5.3 0 2.6 0.3 3.1 1.4 2.3 0.8 -0.6 2.3 -0.6 3.9 -0.1 l2.6 1.1 -3.3 3.4 c-2.5 2.6 -3 3.9 -2.4 5.1 0.9 1.4 0.5 1.9 -1.2 2.4 -1.3 0.3 -2 1.1 -1.7 1.5 0.3 0.5 -0.5 1 -2 1 l-2.6 0 0.1 -12.9z"/>
  <path d="M539.4 107.3 c0 -0.5 -1.1 -1.4 -2.3 -1.7 -1.8 -0.6 -2 -1 -0.9 -1.7 0.9 -0.5 1 -1 0.4 -1 -0.6 0 -1.3 -1.4 -1.4 -3.2 -0.1 -1.7 0.2 -3.2 0.9 -3.2 0.5 0 1.1 -0.8 1.1 -1.6 0 -0.9 0.4 -1.6 1 -1.6 0.6 0 0.9 1 0.6 2.1 -0.2 1.2 0 2.4 0.6 2.7 0.5 0.4 1 -1.7 0.9 -5 -0.1 -3.9 -0.3 -4.8 -0.9 -3.1 -0.6 2.4 -0.8 2.4 -2.5 -1.3 -1.8 -3.8 -1.8 -3.8 0.8 -3.5 2.1 0.3 2.5 -0.1 2.4 -2.5 -0.2 -2.5 -0.9 -2.9 -5 -3.4 l-4.8 -0.6 5.6 -0.1 5.6 -0.2 0.3 12.1 c0.3 13.7 0.1 17.9 -1.4 17.9 -0.5 0 -1 -0.4 -1 -1z"/>
  <path d="M413.9 30.6 l0 -15.5 15.9 0 15.8 0 0.3 15.5 0.4 15.5 -16.2 0 -16.2 0 0 -15.5z"/>
  <path d="M1186.7 45.4 c-0.4 -0.3 -0.8 -7.4 -0.8 -15.5 l0 -14.8 7.5 0 7.5 0 0 15.5 0 15.5 -6.8 0 c-3.8 0 -7.2 -0.3 -7.5 -0.8z"/>
  <path d="M890 7.5 l0 -7.5 16.1 0 16.1 0 0 7.5 0 7.5 -16.1 0 -16.1 0 0 -7.5z"/>
  <path d="M56.8 7 l0 -7 16.1 0 16.1 0 0 7 0 7 -16.1 0 -16.1 0 0 -7z"/>
 </g>
 <g fill="#093d78">
  <path d="M469.6 642 c-81.6 -81.9 -148.9 -150 -149.7 -151.3 -0.8 -1.3 -1.3 -6.2 -1.4 -11.2 l0 -8.9 6.1 -6.6 c3.4 -3.6 55.9 -56.6 116.7 -117.6 60.8 -61 125.2 -125.9 143.2 -144 18 -18.2 33.6 -33.6 34.7 -34.2 1.3 -0.8 2.3 -0.8 3 0 0.8 0.8 1.8 0.8 3.2 -0.1 1.8 -1.2 9 5.8 73 70 38.9 39.2 105.7 106.3 148.3 149.1 42.5 42.8 78.1 79.2 79.1 81.2 2.1 4.4 2.4 17.5 0.2 21.6 -0.9 1.6 -68.7 69.9 -150.8 151.9 -144.8 144.5 -149.3 148.9 -153.2 149.1 -4.1 0.1 -5.7 -1.5 -152.5 -148.8z m54.7 -106.4 l6.8 -19.8 37.2 0 37.1 0 7 19.8 7 19.8 16.9 0 c9.2 0 16.8 -0.3 16.8 -0.8 0 -1 -21 -58.1 -44.7 -121.7 l-19.8 -53.4 -19.2 0 c-10.6 0 -19.2 0.1 -19.2 0.3 0 0.2 -5.4 14.4 -11.9 31.4 -6.5 17 -20.9 55.1 -32.1 84.6 -11.2 29.5 -20.7 54.9 -21.3 56.6 l-1.2 2.9 16.9 0 16.8 0 6.9 -19.8z m196.3 -69.2 l0 -89 -13.3 0 -13.2 0 -1.9 5 c-5.3 13.6 -19.7 21.9 -41.4 23.5 l-9.5 0.8 0 10 0 10.1 22 0 22 0 0 64.3 0 64.3 17.7 0 17.7 0 0 -89z"/>
  <path d="M543.7 485.2 c0 -2 4.8 -17 10.6 -33.5 l10.6 -29.8 4.2 -0.3 4.1 -0.3 10.5 30.7 c5.7 16.8 10.4 32 10.4 33.8 l0 3.2 -25.2 0 -25.2 0 0 -3.8z"/>
 </g>
 <g fill="#0ea7e8">
  <path d="M659.9 825.3 c-1.8 -0.9 -10.7 -9 -19.8 -18.3 -13.4 -13.6 -16.9 -16.7 -18.9 -16.3 -2 0.3 -2.5 0 -2.5 -2.3 0 -2.3 0.2 -2.5 1.6 -1.3 1.4 1.2 23.8 -20.8 151.3 -148.1 82.4 -82.2 150.3 -150.8 151.2 -152.4 1.8 -3.4 1.9 -10.8 0.3 -14 -2 -3.9 -8 -10 -156.3 -159.2 -110.7 -111.4 -142.4 -142.7 -144 -142.2 -1.5 0.4 -1.9 0 -1.9 -1.8 0 -1.7 0.3 -2 1.4 -1.2 1.1 1 4.7 -2.1 15.9 -13.3 18.3 -18.7 21.2 -20.8 27.7 -20.8 2.7 0 6.3 0.8 7.9 1.6 3.3 1.7 334 332.8 336.1 336.6 2 3.5 1.7 12.4 -0.6 16.2 -4.3 6.9 -332.1 335 -336.5 336.9 -4.3 1.7 -8.5 1.7 -12.8 -0.1z"/>
 </g>
 <g fill="#5daf3d">
  <path d="M572.1 824.2 c-1.7 -0.9 -78.1 -76.5 -169.6 -168.2 -182 -182.4 -170.6 -170.2 -167.7 -180 1.6 -5.1 2.9 -6.5 214.6 -218.9 68.5 -68.7 121.3 -120.9 123.5 -122 9.7 -4.9 14.4 -2.6 34.6 17.6 l16.5 16.5 -34.4 34.7 c-19.1 19.1 -84.3 84.7 -145.1 145.7 -60.8 61 -113.2 114 -116.7 117.6 -5.9 6.3 -6.1 6.9 -6.1 12.3 0.1 3.1 0.6 6.8 1.4 7.9 0.8 1.3 66.9 68.1 147 148.5 80.2 80.4 147.1 147.8 148.7 149.5 l2.9 3.2 -16.3 16.8 c-19.5 20.2 -24.1 22.7 -33.3 18.7z"/>
 </g>
 <g fill="#fefdfd">
  <path d="M479.3 557.1 c0 -1.6 32.3 -88 55.7 -148.9 6.5 -17 11.9 -31.2 11.9 -31.4 0 -0.2 10.1 -0.3 22.4 -0.3 l22.4 0 19.8 53.4 c25.8 69.1 46.9 126.5 46.9 127.9 0 0.5 -8.5 1 -21.1 1 l-21.2 0 -7 -19.8 -7 -19.8 -33.9 0 -34 0 -6.8 19.8 -6.9 19.8 -20.6 0 c-17.7 0 -20.7 -0.2 -20.7 -1.6z m111.3 -72.2 c-0.1 -0.5 -4.9 -14.3 -10.5 -30.6 -5.6 -16.3 -10.6 -29.6 -11 -29.4 -0.8 0.2 -18.1 47.3 -21.6 58.4 l-0.8 2.4 22.1 0 c12.2 0 22 -0.4 21.8 -0.9z"/>
  <path d="M682 494.3 l0 -64.3 -22 0 -22 0 0 -13.3 0 -13.2 9.5 -0.8 c21.7 -1.6 36.1 -9.9 41.4 -23.5 l1.9 -5 16.4 0 16.5 0 0 92.2 0 92.2 -20.9 0 -20.9 0 0 -64.3z"/>
 </g>
</svg>